<svg width="68" height="69" viewBox="0 0 68 69" fill="none" xmlns="http://www.w3.org/2000/svg">
<circle cx="34" cy="34.5171" r="34" fill="white"/>
<circle cx="34" cy="34.5171" r="30" fill="#44AD49"/>
<path d="M35.5762 26.7171V43.5171H31.6882V29.8371H28.3282V26.7171H35.5762ZM40.7026 43.7091C40.0466 43.7091 39.4946 43.4851 39.0466 43.0371C38.5986 42.5891 38.3746 42.0291 38.3746 41.3571C38.3746 40.6691 38.5986 40.1171 39.0466 39.7011C39.4946 39.2691 40.0466 39.0531 40.7026 39.0531C41.3586 39.0531 41.9106 39.2691 42.3586 39.7011C42.8066 40.1171 43.0306 40.6691 43.0306 41.3571C43.0306 42.0291 42.8066 42.5891 42.3586 43.0371C41.9106 43.4851 41.3586 43.7091 40.7026 43.7091Z" fill="white"/>
</svg>
