<svg width="68" height="69" viewBox="0 0 68 69" fill="none" xmlns="http://www.w3.org/2000/svg">
<circle cx="34" cy="34.5171" r="34" fill="white"/>
<circle cx="34" cy="34.5171" r="30" fill="#44AD49"/>
<path d="M38.6521 40.3491V43.5171H25.9561V40.9971L32.4361 34.8771C33.1241 34.2211 33.5881 33.6611 33.8281 33.1971C34.0681 32.7171 34.1881 32.2451 34.1881 31.7811C34.1881 31.1091 33.9561 30.5971 33.4921 30.2451C33.0441 29.8771 32.3801 29.6931 31.5001 29.6931C30.7641 29.6931 30.1001 29.8371 29.5081 30.1251C28.9161 30.3971 28.4201 30.8131 28.0201 31.3731L25.1881 29.5491C25.8441 28.5731 26.7481 27.8131 27.9001 27.2691C29.0521 26.7091 30.3721 26.4291 31.8601 26.4291C33.1081 26.4291 34.1961 26.6371 35.1241 27.0531C36.0681 27.4531 36.7961 28.0291 37.3081 28.7811C37.8361 29.5171 38.1001 30.3891 38.1001 31.3971C38.1001 32.3091 37.9081 33.1651 37.5241 33.9651C37.1401 34.7651 36.3961 35.6771 35.2921 36.7011L31.4281 40.3491H38.6521ZM42.6987 43.7091C42.0427 43.7091 41.4907 43.4851 41.0427 43.0371C40.5947 42.5891 40.3707 42.0291 40.3707 41.3571C40.3707 40.6691 40.5947 40.1171 41.0427 39.7011C41.4907 39.2691 42.0427 39.0531 42.6987 39.0531C43.3547 39.0531 43.9067 39.2691 44.3547 39.7011C44.8027 40.1171 45.0267 40.6691 45.0267 41.3571C45.0267 42.0291 44.8027 42.5891 44.3547 43.0371C43.9067 43.4851 43.3547 43.7091 42.6987 43.7091Z" fill="white"/>
</svg>
