<svg width="68" height="69" viewBox="0 0 68 69" fill="none" xmlns="http://www.w3.org/2000/svg">
<circle cx="34" cy="34.5171" r="34" fill="white"/>
<circle cx="34" cy="34.5171" r="30" fill="#44AD49"/>
<path d="M34.0418 33.5571C35.5138 33.7971 36.6418 34.3491 37.4258 35.2131C38.2098 36.0611 38.6018 37.1171 38.6018 38.3811C38.6018 39.3571 38.3458 40.2611 37.8338 41.0931C37.3218 41.9091 36.5378 42.5651 35.4818 43.0611C34.4418 43.5571 33.1618 43.8051 31.6418 43.8051C30.4578 43.8051 29.2898 43.6531 28.1378 43.3491C27.0018 43.0291 26.0338 42.5811 25.2338 42.0051L26.7458 39.0291C27.3858 39.5091 28.1218 39.8851 28.9538 40.1571C29.8018 40.4131 30.6658 40.5411 31.5458 40.5411C32.5218 40.5411 33.2898 40.3571 33.8498 39.9891C34.4098 39.6051 34.6898 39.0691 34.6898 38.3811C34.6898 37.0051 33.6418 36.3171 31.5458 36.3171H29.7698V33.7491L33.2258 29.8371H26.0738V26.7171H37.8338V29.2371L34.0418 33.5571ZM42.6049 43.7091C41.9489 43.7091 41.3969 43.4851 40.9489 43.0371C40.5009 42.5891 40.2769 42.0291 40.2769 41.3571C40.2769 40.6691 40.5009 40.1171 40.9489 39.7011C41.3969 39.2691 41.9489 39.0531 42.6049 39.0531C43.2609 39.0531 43.8129 39.2691 44.2609 39.7011C44.7089 40.1171 44.9329 40.6691 44.9329 41.3571C44.9329 42.0291 44.7089 42.5891 44.2609 43.0371C43.8129 43.4851 43.2609 43.7091 42.6049 43.7091Z" fill="white"/>
</svg>
