<svg width="62" height="62" viewBox="0 0 62 62" fill="none" xmlns="http://www.w3.org/2000/svg">
<circle cx="31" cy="31" r="29.5" stroke="white" stroke-width="3"/>
<path d="M20.3184 14.983C20.876 15.2202 21.1462 15.6577 21.2773 16.2388C21.5206 17.3143 21.8205 18.3781 22.0654 19.4527C22.1384 19.7729 22.2748 19.858 22.5908 19.858C26.1144 19.8545 26.151 19.8521 28.9893 19.8521C29.7024 19.8513 30.2822 20.43 30.2822 21.1441C30.282 21.858 29.7032 22.4351 28.9893 22.4351H23.3213C22.5255 22.4351 22.6889 22.4349 22.7949 23.0787C23.4057 26.7926 24.032 30.5035 24.6436 34.2174C24.6922 34.5115 24.8061 34.6086 25.1074 34.606C26.6477 34.5913 28.1883 34.5992 29.7295 34.5992C33.7578 34.5992 37.7871 34.5956 41.8154 34.606C42.0482 34.6069 42.2455 34.4359 42.2803 34.2056C42.4297 33.2144 42.6035 32.2264 42.7686 31.2369C43.2351 28.4369 43.7031 25.6375 44.167 22.8375C44.233 22.4382 44.2254 22.4361 43.8086 22.4361H38.4521C37.7382 22.4361 37.1594 21.8581 37.1592 21.1441C37.1592 20.43 37.738 19.8512 38.4521 19.8512H45.3633C45.5092 19.8512 45.6566 19.8453 45.8008 19.8609L45.7998 19.8619C46.6659 19.9566 47.1449 20.6116 46.998 21.4986C46.6471 23.6122 46.2951 25.7257 45.9424 27.8385C45.4898 30.5464 45.0355 33.2545 44.582 35.9625C44.4638 36.6669 43.8537 37.1831 43.1396 37.1832H25.3701C25.0562 37.1838 24.8994 37.3436 24.8994 37.6627C24.8985 38.1829 24.9075 38.704 24.8945 39.2242C24.8884 39.4596 24.9775 39.5376 25.2051 39.5289C25.5377 39.515 25.8716 39.525 26.2051 39.525C31.0779 39.525 35.9515 39.5226 40.8252 39.5269C42.5862 39.5287 44.0951 40.7449 44.4834 42.4547C44.9629 44.564 43.5722 46.5854 41.376 46.9703C39.3875 47.3186 37.3647 45.7968 37.1221 43.7555C37.0708 43.3219 37.0577 42.8766 37.1846 42.4517C37.2688 42.1695 37.1694 42.1053 36.9072 42.107C35.6996 42.114 34.4908 42.1099 33.2832 42.1099H27.6289C27.3418 42.1105 27.2269 42.2445 27.2852 42.5123C27.7387 44.5869 26.3303 46.6083 24.1758 46.9732C22.1578 47.3152 20.1447 45.7798 19.918 43.7262C19.7357 42.0731 20.5509 40.5965 22.0615 39.8824C22.2848 39.7773 22.3648 39.6567 22.3613 39.4117C22.3474 38.3702 22.3833 37.3274 22.3477 36.2877C22.3181 35.4138 22.0976 34.5596 21.9561 33.6988C21.4305 30.4967 20.8675 27.3009 20.3662 24.0953C20.0335 21.9642 19.5464 19.8688 19.0078 17.7838C18.9531 17.573 18.8589 17.498 18.6436 17.5006C17.9252 17.511 17.2049 17.4783 16.4883 17.5113C15.7717 17.5443 15.2898 17.2524 15.0049 16.607C15.0049 16.1292 15.0113 15.6522 15 15.1744C14.9974 15.0658 15.0838 14.9781 15.1924 14.9781C16.9003 14.9842 18.6087 14.9821 20.3184 14.983ZM23.627 42.1119C22.9642 42.112 22.4626 42.6118 22.46 43.2721C22.4582 43.9106 22.993 44.4498 23.6289 44.4498C24.2622 44.4497 24.7995 43.906 24.7969 43.2701C24.7933 42.6099 24.2897 42.1119 23.627 42.1119ZM40.8564 42.1119C40.192 42.105 39.6553 42.6246 39.6533 43.276C39.6516 43.8918 40.2152 44.4487 40.8389 44.4488C41.46 44.4479 41.9825 43.9244 41.9912 43.2945C42.0007 42.6213 41.5175 42.1188 40.8564 42.1119ZM33.5518 19.859C34.2656 19.8591 34.8447 20.4381 34.8447 21.1519C34.8445 21.8656 34.2655 22.4438 33.5518 22.4439C32.8379 22.4439 32.259 21.8657 32.2588 21.1519C32.2588 20.438 32.8378 19.859 33.5518 19.859Z" fill="white"/>
</svg>
