<svg width="30" height="27" viewBox="0 0 30 27" fill="none" xmlns="http://www.w3.org/2000/svg">
<path d="M11.1387 0.589844C14.7422 0.0314827 18.0529 0.831114 21.0215 2.97559C21.3366 3.20323 21.5361 3.49171 21.4453 3.89648C21.3652 4.25332 21.1262 4.47078 20.7666 4.54395C20.4598 4.60576 20.2207 4.45574 19.9883 4.28613C18.9792 3.54968 17.8767 2.99928 16.6875 2.61621C12.2095 1.17382 7.12254 2.72266 4.20508 6.41797C2.34568 8.77295 1.51465 11.4531 1.69824 14.4375C2.01249 19.5599 5.87573 23.9807 10.9443 24.9395C14.7377 25.6566 18.1308 24.7273 21.0049 22.1211C23.1168 20.2058 24.3262 17.8008 24.6699 14.9648C24.7555 14.2561 24.7491 13.5465 24.7256 12.835C24.7105 12.3796 24.9717 12.0319 25.3662 11.9365C25.8708 11.8144 26.3485 12.1705 26.3857 12.7109C26.55 15.0687 26.1366 17.3229 25.0654 19.4287C23.0825 23.3274 19.9279 25.7194 15.6455 26.6133C14.8421 26.781 14.0245 26.8391 13.2031 26.835H13.2021C6.60445 26.8136 1.17896 22.0115 0.188477 15.7803C-0.452723 11.7446 0.565179 8.13472 3.21484 5.02051C5.29928 2.57026 7.96646 1.08127 11.1387 0.589844ZM24.5703 2.32422C25.5192 1.37603 26.6442 1.06903 27.9209 1.50293C28.9383 1.84873 29.6007 2.56946 29.9092 3.60547C29.9395 3.7083 29.9719 3.81094 30.0029 3.91309V5.02441L30.002 5.02539C29.8232 5.87279 29.3194 6.50882 28.7197 7.10645C24.0567 11.7549 19.4036 16.4122 14.751 21.0703C14.0719 21.7501 13.2897 21.9722 12.374 21.6611C12.0739 21.559 11.8244 21.3683 11.6016 21.1455C9.27693 18.8209 6.9483 16.5008 4.62988 14.1699C3.67686 13.212 3.42214 11.8455 3.94238 10.6592C4.45585 9.48801 5.64456 8.72076 6.91992 8.7627C7.79774 8.79168 8.5365 9.14575 9.15625 9.76953C10.3931 11.016 11.6437 12.2487 12.875 13.5C13.0821 13.7098 13.1888 13.7152 13.4014 13.502C17.1188 9.77074 20.8446 6.04715 24.5703 2.32422ZM26.873 2.9873C26.3492 2.97902 25.9761 3.25663 25.6289 3.60449C21.8577 7.3785 18.0848 11.1509 14.3115 14.9229C13.5302 15.7042 12.7267 15.7023 11.9434 14.9189C10.5912 13.5675 9.2428 12.2124 7.88379 10.8672C7.42342 10.4117 6.86719 10.3085 6.26465 10.5459C5.7029 10.7668 5.36785 11.2827 5.3623 11.9473C5.33953 12.38 5.56051 12.7494 5.89453 13.082C8.13972 15.3196 10.3794 17.5629 12.6211 19.8047C13.0614 20.245 13.2141 20.2449 13.6572 19.8018C18.354 15.105 23.051 10.4084 27.7471 5.71094C27.8637 5.59429 27.9839 5.47639 28.0791 5.3418C28.4262 4.85188 28.4624 4.32153 28.1982 3.79297C27.9311 3.26016 27.4755 2.99631 26.873 2.9873Z" fill="#783E0F"/>
</svg>
