<svg width="84" height="85" viewBox="0 0 84 85" fill="none" xmlns="http://www.w3.org/2000/svg">
<path d="M83.113 55.2396C79.0808 51.2009 75.0595 47.1534 71.0032 43.141C70.4562 42.6 70.4868 42.3021 71.0185 41.794C72.5172 40.3594 73.9918 38.8964 75.4205 37.3939C78.7242 33.9115 77.4246 28.3966 72.9154 26.7539C72.2896 26.5261 72.1693 26.2699 72.3006 25.6238C73.0182 22.1173 71.2176 19.0576 67.8023 17.9406C67.3013 17.7763 67.1219 17.6164 67.2116 17.0294C67.8264 13.0849 65.3956 9.87187 61.4487 9.38346C60.9849 9.32651 60.8624 9.12283 60.8274 8.70888C60.7289 7.4977 60.4292 6.34785 59.7553 5.30969C57.7184 2.17114 52.9138 0.979676 49.4242 4.54094C48.6672 5.31407 48.6475 5.29874 48.1815 4.33725C46.1774 0.204347 40.7296 -0.779051 37.4127 2.39454C36.647 3.12826 35.8944 3.87731 35.1636 4.64606C34.8158 5.01183 34.4351 5.16514 33.934 5.15857C32.4332 5.13886 30.9323 5.14324 29.4314 5.15419C24.2286 5.1958 21.4938 10.1697 23.1675 14.1033C23.3841 14.6093 23.2988 14.7998 22.7299 14.7713C21.5835 14.7188 20.5114 15.0079 19.5247 15.5883C15.2955 18.0676 15.1205 23.8957 19.19 26.6488C19.5619 26.9006 19.8944 27.0386 19.5859 27.6453C17.9429 30.8693 18.7786 34.159 21.7454 36.198C22.2661 36.555 22.2639 36.8288 21.9882 37.3194C21.2772 38.5832 21.0978 39.9717 21.3647 41.3669C21.5047 42.094 21.3012 42.5277 20.8133 43.0117C14.9345 48.8705 9.07103 54.7468 3.20972 60.6209C2.27987 61.5517 1.36972 62.5045 0.455193 63.4506C-0.161787 64.0902 -0.150847 65.1064 0.483637 65.7284C3.80483 68.9918 7.11944 72.2618 10.4516 75.5142C13.3658 78.3593 16.2976 81.1869 19.2228 84.0188C19.6997 84.4809 20.3736 84.6211 20.9687 84.4415C21.019 84.4262 21.0693 84.4086 21.1175 84.3889C21.1218 84.3889 21.1284 84.3845 21.1328 84.3823C21.1787 84.3648 21.2225 84.3429 21.2662 84.321C21.2728 84.3166 21.2816 84.3123 21.2881 84.3101C21.4741 84.2115 21.6513 84.0779 21.8198 83.9158C23.1281 82.639 43.1494 62.6644 44.403 61.3327C44.9587 60.7436 45.2978 60.8005 45.8404 61.3524C49.6977 65.2554 53.5811 69.1342 57.4668 73.0108C61.0024 76.5393 64.5468 80.0611 68.0889 83.5829C69.1654 84.6517 70.9769 84.3473 71.6355 82.9806C71.6398 82.9719 71.6442 82.9631 71.6486 82.9543C75.6371 74.6623 79.6321 66.3724 83.6228 58.0825C84.2333 56.8165 84.1304 56.2559 83.1109 55.2352L83.113 55.2396ZM35.6384 9.05274C37.0342 7.6313 38.4214 6.19891 39.8676 4.83223C41.1868 3.58382 43.1734 3.66705 44.438 4.93736C45.7004 6.20548 45.731 8.17666 44.4533 9.50611C43.1122 10.9013 41.7425 12.2723 40.3489 13.6149C39.3468 14.5808 37.8481 14.8546 36.5923 14.2545C35.3736 13.6719 34.7785 12.6534 34.7873 11.094C34.7567 10.4194 35.0389 9.66381 35.6406 9.05274H35.6384ZM26.1605 11.4926C26.248 9.95729 27.5323 8.72202 29.1163 8.6585C29.4423 8.64536 29.7683 8.6585 30.0965 8.6585C31.6718 8.65412 31.6565 8.65193 31.3874 10.1654C31.1467 11.5145 31.3239 12.8308 31.8862 14.0771C32.1421 14.6443 31.989 14.8042 31.4114 14.7779C30.5166 14.7363 29.6195 14.8217 28.7247 14.6662C27.1254 14.3859 26.073 13.1002 26.1627 11.497L26.1605 11.4926ZM19.7478 21.4208C19.6691 19.4934 20.9774 18.1793 23.0297 18.1727C27.2851 18.1596 31.5405 18.1683 35.7959 18.1683C37.1042 18.1683 38.4148 18.1552 39.7231 18.1727C41.6419 18.1968 42.9546 19.4562 42.9524 21.239C42.9481 23.0196 41.631 24.2702 39.7013 24.2812C36.9183 24.2965 34.1375 24.2856 31.3545 24.2856C28.5453 24.2856 25.7361 24.3009 22.9246 24.279C21.1131 24.2658 19.8157 23.0722 19.7478 21.4208ZM37.5243 33.791C35.4787 33.8239 33.4308 33.7998 31.383 33.7998C29.3089 33.7998 27.2347 33.826 25.1606 33.791C23.7101 33.7669 22.4915 32.6609 22.2552 31.2504C22.0298 29.8968 22.7868 28.5126 24.058 27.9892C24.6203 27.757 25.2219 27.6935 25.8236 27.6935C29.508 27.6847 33.1923 27.6847 36.8767 27.6935C37.4784 27.6935 38.08 27.7592 38.6423 27.9936C39.9003 28.5126 40.6793 29.9428 40.4408 31.2613C40.1826 32.685 38.9771 33.7691 37.5243 33.7932V33.791ZM38.0035 40.3265C37.9925 41.9561 36.647 43.2986 34.9405 43.3162C32.5163 43.3403 30.0921 43.3425 27.668 43.3162C26.0336 43.2986 24.7274 41.9495 24.699 40.3265C24.6706 38.7168 25.968 37.3807 27.6264 37.3128C27.7073 37.3085 27.7905 37.3063 27.8714 37.3063C29.0157 37.3063 30.16 37.3063 31.3042 37.3063C31.3042 37.3063 31.3042 37.3085 31.3042 37.3106C32.5294 37.3106 33.7568 37.2887 34.982 37.3172C36.7061 37.3566 38.0166 38.6817 38.0057 40.3309L38.0035 40.3265ZM20.7039 80.1356C20.4567 80.2976 20.2314 80.2713 19.9097 79.9538C14.8448 74.982 9.76458 70.0234 4.67777 65.0736C4.29927 64.7034 4.26209 64.4581 4.66247 64.0814C5.43917 63.3543 6.17429 62.5811 6.92691 61.8299C12.2522 56.499 17.584 51.1724 22.894 45.8239C23.3469 45.3662 23.6532 45.2654 24.2045 45.7144C24.9244 46.3014 25.8214 46.6277 26.7469 46.6935C29.8471 46.9212 32.9692 47.0702 36.0453 46.6562C40.3095 46.0824 42.7052 41.2902 40.7624 37.4552C40.432 36.8047 40.4823 36.52 41.0928 36.0995C43.8473 34.2028 44.718 30.8101 43.2062 27.8556C42.8693 27.1963 43.0356 26.9488 43.5848 26.5787C47.2429 24.1169 47.4288 18.832 43.9567 16.1315C43.4447 15.7328 43.355 15.5182 43.8517 15.0276C46.5931 12.3249 49.2973 9.58496 52.0277 6.86911C53.3623 5.54185 55.268 5.48929 56.4844 6.7158C57.679 7.91822 57.6331 9.79084 56.3554 11.1247C55.6574 11.854 54.9223 12.5483 54.2222 13.2776C53.4214 14.1077 53.3777 15.1086 54.0843 15.827C54.7932 16.5476 55.804 16.5169 56.631 15.7241C57.3202 15.0626 57.9744 14.364 58.6657 13.7047C59.4162 12.9885 60.311 12.6315 61.3546 12.8243C62.523 13.0411 63.3325 13.72 63.7132 14.8524C64.107 16.0241 63.8335 17.0754 62.989 17.9493C61.7747 19.2065 60.5101 20.4155 59.3024 21.6748C58.4951 22.5181 58.5104 23.5037 59.2696 24.2177C59.996 24.901 60.928 24.8572 61.7463 24.0753C62.418 23.4336 63.0502 22.7524 63.7263 22.1173C64.4942 21.3967 65.3847 20.9543 66.4765 21.1755C67.6667 21.4164 68.5287 22.0954 68.87 23.2759C69.2026 24.4323 68.9553 25.4858 68.0714 26.3597C66.8287 27.5884 65.5969 28.828 64.3674 30.0699C63.385 31.0642 63.2581 32.1024 64.0085 32.8733C64.7721 33.6596 65.7917 33.5457 66.8003 32.5535C67.4632 31.9031 68.0911 31.2153 68.7825 30.5977C70.3906 29.1653 72.9329 29.8027 73.6067 31.8242C74.0553 33.169 73.6483 34.3188 72.6397 35.3198C68.2661 39.6717 63.8794 44.0127 59.5628 48.4237C56.7076 51.3389 53.3645 52.9048 49.247 52.6617C48.5468 52.6201 47.9692 52.861 47.477 53.3538C44.648 56.188 26.2983 74.5287 20.7018 80.129L20.7039 80.1356ZM79.8509 57.9467C76.44 65.032 73.0226 72.1151 69.6226 79.2069C69.3579 79.761 69.1697 79.8202 68.719 79.3668C61.8601 72.4786 54.9901 65.6014 48.1093 58.7373C47.6236 58.2533 47.6739 57.9554 48.258 57.5218C48.4943 57.3466 48.7109 57.1407 48.8838 56.8998C49.2645 56.3719 49.7195 56.1967 50.319 56.1748C54.3469 56.0171 58.1954 54.5037 61.1052 51.7156C63.2034 49.705 65.236 47.6265 67.2707 45.5502C67.7367 45.0727 68.0299 45.0399 68.5199 45.5348C72.2065 49.2626 75.9215 52.9618 79.6234 56.672C79.8116 56.8603 80.0478 57.0268 80.0719 57.3838C80.0106 57.5437 79.945 57.7518 79.8509 57.9467Z" fill="#44AD49"/>
</svg>
