<svg width="84" height="85" viewBox="0 0 84 85" fill="none" xmlns="http://www.w3.org/2000/svg">
<path d="M83.9934 70.4495V70.0946C83.9563 70.0355 83.9147 69.9807 83.8753 69.9238C83.8272 69.8186 83.7703 69.72 83.6916 69.6324C83.3328 69.225 82.88 68.9731 82.2588 68.9928C82.0356 68.9994 81.9109 68.9358 81.8409 68.8329C81.83 68.8154 81.8169 68.7978 81.8081 68.7759C81.8081 68.7737 81.8059 68.7715 81.8037 68.7693C81.7884 68.7321 81.7753 68.6905 81.7666 68.6467C81.7644 68.6313 81.7622 68.6138 81.76 68.5963C81.76 68.5919 81.76 68.5853 81.76 68.581C81.7491 68.4758 81.7513 68.3619 81.7513 68.2502C81.7513 67.8778 81.7513 67.5032 81.7513 67.1308C81.7556 66.4058 81.7534 65.6807 81.7491 64.9556C81.7491 64.7694 81.7491 64.5832 81.7491 64.397C81.7403 63.155 81.2853 62.5898 80.0384 62.4212C76.0878 61.8889 72.135 61.3675 68.2412 60.4891C66.3994 60.0729 64.5925 59.5494 62.8316 58.8594C60.1475 57.8079 57.2972 57.3873 54.4316 57.602C54.2872 57.6108 54.1406 57.6217 53.9963 57.6349C53.9219 57.6414 53.8475 57.6524 53.7731 57.6612C53.6747 57.6721 53.5784 57.6809 53.48 57.6918V57.6962C49.2822 58.2219 45.5875 59.8802 42.4572 62.7848C42.0831 63.1309 41.8622 63.0937 41.5122 62.7651C39.6769 61.0455 37.5813 59.7224 35.2122 58.8638C34.5625 58.6272 34.3766 58.3249 34.7419 57.464C35.0241 56.7981 35.2144 56.0949 35.2538 55.372C35.2975 54.59 35.5688 54.2483 36.1703 54.0336C38.6663 53.1399 41.1447 52.2024 43.6384 51.302C44.3494 51.0457 44.9597 50.6799 45.4825 50.1301C47.1625 48.3689 48.7769 46.553 50.2469 44.61C53.6375 40.1325 56.2888 35.2542 58.205 29.975C58.7628 28.4351 58.3362 27.5983 56.7525 27.1361C56.6212 27.0988 56.4812 27.0857 56.3566 27.0309C56.1925 26.9608 55.9213 26.9696 55.9388 26.7265C55.9475 26.5994 56.1159 26.4636 56.2428 26.3716C57.1966 25.686 58.1503 24.9981 59.1216 24.3344C59.7625 23.8963 60.1497 23.3377 60.3116 22.5557C61.705 15.822 61.8209 9.06639 60.6988 2.28669C60.4297 0.654743 59.3163 0.107109 57.8156 0.829985C48.8447 5.15848 41.6063 11.4825 35.9822 19.6905C35.1444 20.9128 34.6216 22.1548 34.7528 23.6531C34.8031 24.2227 34.7441 24.801 34.7419 25.3727C34.7419 25.6728 34.6675 25.8021 34.3044 25.7429C32.8759 25.5107 32.4647 25.7298 31.8588 27.0134C29.9513 31.0593 28.6147 35.2936 27.6741 39.6637C27.2694 41.541 27.5975 43.127 28.9231 45.0065C30.3013 46.9604 31.1259 49.2254 31.6313 51.5627C31.7931 52.3119 32.3728 52.8902 32.0644 53.716C31.6925 54.7127 31.3862 55.7335 31.2834 56.7937C31.2112 57.5341 31.0013 57.7794 30.4106 57.705C27.2278 57.3107 24.1434 57.7422 21.1641 58.9098C19.4031 59.5998 17.5963 60.1233 15.7544 60.5395C11.8606 61.4179 7.90782 61.9393 3.95719 62.4716C2.70813 62.6402 2.25532 63.2054 2.24657 64.4474C2.23563 65.7311 2.24437 67.0169 2.24219 68.3006C2.24219 68.6642 2.27063 69.0563 1.73251 69.041C1.24251 69.0256 0.857507 69.1812 0.540319 69.4462C0.190319 69.7376 0 70.18 0 70.6357V78.4318C0 78.8787 0.17938 79.3211 0.525005 79.6037C0.971255 79.9695 1.54656 80.0922 2.18969 80.09C3.91125 80.0856 5.635 80.09 7.35656 80.09C16.5419 80.09 25.7272 80.0966 34.9125 80.0769C35.6344 80.0769 36.0216 80.2609 36.3278 80.9662C37.1459 82.8545 38.6991 83.9213 40.6197 84.4974C41.5341 84.5039 42.3981 84.5105 43.3125 84.5171C45.4541 83.8906 47.0553 82.6464 47.8866 80.5237C48.0003 80.2302 48.2059 80.0966 48.5144 80.0988C48.7069 80.0988 48.8994 80.0966 49.0919 80.0944L49.0875 80.1119C54.1822 80.1251 59.2703 80.1075 64.3562 80.09C70.0656 80.09 75.7728 80.09 81.4822 80.0944C82.5103 80.0944 83.4619 79.9871 84 78.9422V78.4581V70.4451L83.9934 70.4495ZM44.2312 65.8603C46.4209 63.6501 49.0328 62.1934 52.0559 61.4486C52.8828 61.2449 53.725 61.2011 54.5628 61.1134C55.9891 61.0105 57.4634 61.0455 59.0362 61.3303C61.0378 61.6917 62.8469 62.6643 64.8003 63.1923C66.1741 63.5625 67.5544 63.8823 68.9434 64.167C69.1359 64.2612 69.3503 64.3313 69.5844 64.3729C71.8156 64.7629 74.0556 65.1133 76.2912 65.4857C77.6096 65.7063 78.2666 66.5021 78.2622 67.8734C78.2622 68.0903 78.2622 68.2677 78.2534 68.4123C78.1769 68.8416 77.9231 69.0125 77.4638 69.0541C77.3544 69.0541 77.2319 69.0563 77.0919 69.0563C76.6434 69.0563 76.1928 69.0563 75.7444 69.0563C70.8116 69.0278 65.8744 68.9994 60.9416 68.9994C57.7281 68.9994 54.5147 69.0541 51.3013 69.0541C49.1269 69.0541 46.9503 69.0541 44.7759 69.0541C44.5572 69.0541 44.3384 69.0541 44.1197 69.0432C43.9469 69.0344 43.8156 68.9621 43.7347 68.7913C43.4634 68.2151 43.7763 66.3225 44.2334 65.8625L44.2312 65.8603ZM31.2288 42.0843C31.01 41.5958 30.9334 41.127 31.0406 40.586C31.71 37.2563 32.6659 34.0187 33.9303 30.8666C34.2016 30.1875 34.4488 30.1765 34.9388 30.6607C35.5316 31.2455 36.2381 31.607 37.0891 31.2149C37.9225 30.8315 38.0822 30.1086 38.1347 29.2521C38.2594 27.2325 38.2397 25.2128 38.2638 23.1909C38.2681 22.766 38.3578 22.398 38.5984 22.0387C43.2622 15.0487 49.2275 9.46506 56.5753 5.37096C57.5772 4.81237 57.6034 4.85399 57.7063 5.97555C57.9753 8.94153 58.1241 11.9075 57.8769 14.8866C57.6997 17.0093 57.4306 19.1165 57.0456 21.2107C56.9712 21.6159 56.6891 21.8043 56.4025 22.0102C54.6219 23.2786 52.85 24.56 51.0541 25.8042C50.3234 26.3103 49.8247 26.8995 49.9931 27.8392C50.1594 28.7615 50.8616 29.0922 51.6688 29.3047C52.3819 29.4931 53.0797 29.7384 53.7994 29.8984C54.3703 30.0254 54.4031 30.2861 54.2019 30.7702C52.9878 33.7055 51.5353 36.5181 49.8203 39.1906C47.9412 42.1193 45.7953 44.8378 43.3584 47.3284C42.9538 47.7424 42.4616 48.0601 41.9169 48.2528C40.2041 48.8596 38.5022 49.4927 36.7653 50.1279C36.6909 49.6986 36.8594 49.405 36.9513 49.1049C39.7053 40.1369 43.2272 31.515 48.4531 23.6663C49.3456 22.3257 50.2863 21.0157 51.3581 19.8066C51.6469 19.4802 51.9444 19.145 52.0406 18.7025C52.2091 17.9315 51.9903 17.294 51.3231 16.8472C50.7063 16.4331 49.8247 16.4616 49.2713 16.9983C48.7244 17.5262 48.2278 18.1177 47.7619 18.7223C44.0497 23.5305 41.1731 28.825 38.7122 34.3583C36.8463 38.5553 35.2581 42.8554 33.8997 47.243C33.8691 47.3438 33.8166 47.4358 33.7444 47.6022C33.4053 47.3087 33.3463 46.921 33.2019 46.5946C32.5391 45.0963 31.9003 43.587 31.2309 42.0909L31.2288 42.0843ZM5.71157 68.0311C5.81001 65.2053 5.26532 65.8538 8.18782 65.4113C11.8891 64.8505 15.5728 64.2218 19.1909 63.247C21.1444 62.7213 22.9556 61.7465 24.955 61.3851C30.6534 60.3555 35.6147 61.7881 39.7666 65.8691C40.2216 66.3159 40.5278 68.2524 40.25 68.7978C40.0684 69.1549 39.7316 69.0454 39.4494 69.0454C37.2356 69.0541 35.0219 69.0497 32.8081 69.0497C29.5553 69.0497 26.3025 69.0497 23.0497 69.0497C17.6378 69.0497 12.2259 69.0366 6.81407 69.0651C6.02 69.0695 5.68314 68.8942 5.71376 68.0268L5.71157 68.0311ZM47.2172 76.6027C45.4584 76.6027 45.0122 76.9926 44.7563 78.7385C44.5572 80.1119 43.3388 81.1765 41.9825 81.1678C40.6175 81.159 39.4275 80.0988 39.2284 78.7166C38.9813 76.997 38.5219 76.6027 36.7478 76.6027C26.0072 76.6027 15.2644 76.6027 4.52157 76.6027C3.72824 76.6027 3.33157 76.1967 3.33157 75.3848C3.33157 74.6203 3.34469 73.8558 3.32719 73.0913C3.31625 72.6378 3.5 72.4319 3.955 72.456C4.2 72.4692 4.44719 72.456 4.69219 72.456C17.1566 72.456 29.6187 72.456 42.0831 72.456C54.5475 72.456 67.0097 72.456 79.4741 72.456C80.6247 72.456 80.6487 72.4604 80.6509 73.5403C80.6509 73.8032 80.6466 74.0661 80.6466 74.3311C80.6422 74.7429 80.6422 75.1569 80.6488 75.5688C80.64 76.5479 80.5328 76.5742 79.4281 76.5742C74.8431 76.5742 70.2669 76.5874 65.6906 76.6027C59.5306 76.6027 53.3706 76.6027 47.2128 76.6027H47.2172Z" fill="#44AD49"/>
</svg>
