<svg width="52" height="51" viewBox="0 0 52 51" fill="none" xmlns="http://www.w3.org/2000/svg">
<path d="M25.7363 0C39.7257 4.22659e-05 51.0664 11.3407 51.0664 25.3301C51.0664 39.3194 39.7256 50.6601 25.7363 50.6602C11.747 50.6602 0.406292 39.3194 0.40625 25.3301C0.40625 11.3407 11.747 0 25.7363 0ZM25.7363 3C13.4038 3 3.40625 12.9976 3.40625 25.3301C3.40629 37.6626 13.4038 47.6602 25.7363 47.6602C38.0688 47.6601 48.0664 37.6625 48.0664 25.3301C48.0664 12.9976 38.0688 3.00004 25.7363 3ZM27.7158 36.6523L27.709 36.6602V36.6523H27.7158ZM28.6416 14C30.1767 14 31.7928 14.2729 31.8135 14.2764V17.7695H30.0225C28.261 17.7695 27.709 18.8668 27.709 19.9863V22.6504H31.6416L31.0146 26.748H27.709V36.6523H23.2822V26.7402H19.6777V22.6426H23.2822V19.5156C23.2822 15.963 25.4024 14 28.6416 14Z" fill="white"/>
</svg>
