<svg width="118" height="207" viewBox="0 0 118 207" fill="none" xmlns="http://www.w3.org/2000/svg">
<path d="M61.6709 14.0109C68.4564 4.06159 81.5293 -1.04344 93.2441 1.68274C105.87 4.62028 115.417 14.7006 117.057 26.9689C118.581 38.3818 115.296 48.6782 109.4 58.2804C102.182 70.0405 92.0372 78.8885 80.7852 86.5743C76.0318 89.8237 71.0919 92.7763 65.9512 95.3868C65.1615 95.7892 64.4473 96.182 64.4473 97.2784C64.4724 105.834 64.4629 114.386 64.4629 123.234C65.66 122.092 66.6405 121.136 67.6465 120.21C74.7187 113.671 83.1392 111.93 92.4297 113.248C96.6951 113.852 100.81 114.979 104.748 116.719C107.152 117.78 108.274 119.773 107.499 122.031C104.607 130.441 100.105 137.785 92.6807 142.966C85.5733 147.925 77.6058 148.303 69.3818 146.895C68.8537 146.804 68.3306 146.694 67.8125 146.558C63.9494 145.562 64.4778 145.667 64.4678 149.138C64.4426 156.029 64.493 162.925 64.4326 169.817C64.4176 171.35 64.8299 171.995 66.4746 172.286C80.7447 174.826 90.7141 182.965 96.6797 196.048C97.57 197.995 98.6064 198.824 100.744 198.633C102.801 198.452 104.889 198.588 106.966 198.598C109.828 198.613 111.333 199.438 112.012 201.35C112.731 203.357 112.047 204.972 109.708 206.787H10.9082L10.9131 206.802C10.5308 206.53 10.1278 206.289 9.76562 205.987C8.32206 204.775 7.9096 203.2 8.46289 201.465C9.02121 199.705 10.3142 198.689 12.2002 198.649C14.8108 198.598 17.4268 198.498 20.0273 198.649C21.9135 198.759 22.9293 198.115 23.6787 196.364C26.4352 189.916 30.4898 184.423 36.0781 180.108C41.093 176.239 46.6668 173.618 52.9141 172.512C55.8712 171.989 55.8809 172.024 55.8809 169.001V149.122C55.8807 147.017 54.8985 146.225 52.9336 146.748C45.8061 148.634 38.5977 149.434 31.2891 148.041C22.1648 146.306 15.0926 141.25 9.52441 134.007C5.58605 128.887 2.51256 123.253 0.379883 117.137C-0.510424 114.577 0.153572 112.383 2.48242 111.367C12.4922 106.996 22.8743 104.904 33.7744 106.986C41.9531 108.551 48.3509 113.113 53.6475 119.37C54.246 120.079 54.8251 120.799 55.4287 121.533C56.1228 121.015 55.8662 120.361 55.8662 119.808C55.8863 112.645 55.8255 105.482 55.916 98.3243C55.9361 96.584 55.2573 95.7142 53.7734 94.9396C41.1028 88.3402 29.4835 80.2613 19.7705 69.7032C11.2749 60.4682 5.05327 50.0108 3.33301 37.295C0.792842 18.4777 12.734 4.92193 27.0947 1.68762C38.9555 -0.983206 52.1138 4.09695 58.8389 14.0714C59.7644 15.4429 60.7085 15.4226 61.6709 14.0109ZM63.7881 180.55C50.1972 179.222 39.7704 184.821 32.8994 196.787C31.999 198.357 32.3408 198.643 34.0107 198.633C42.6423 198.578 51.2738 198.609 59.9053 198.609V198.603H86.4033C87.4194 198.603 88.6566 198.804 87.7109 197.059C82.535 187.492 74.5472 181.601 63.7881 180.55ZM35.2529 116.256C27.1096 113.47 19.0615 114.616 11.0791 117.151C10.0128 117.488 9.95197 118.012 10.3594 118.943C11.7125 122.016 13.3875 124.903 15.3643 127.605C21.189 135.572 28.6743 140.441 38.7041 140.089C43.7793 140.19 48.4724 139.259 53.0898 137.795C54.4527 137.363 54.6085 136.789 53.9648 135.648C52.8834 133.726 51.993 131.689 50.7959 129.848C46.9077 123.857 42.2598 118.65 35.2529 116.256ZM96.7656 122.901C91.5596 121.473 86.3131 120.587 80.9863 122.151C73.718 124.284 69.724 129.888 66.4092 136.165C65.8912 137.151 66.5046 137.433 67.3193 137.674C70.3473 138.569 73.461 138.891 76.8662 139.269C78.3801 139.052 80.1963 138.942 81.9365 138.515C89.738 136.613 93.9385 130.773 97.4092 124.169C97.7964 123.435 97.53 123.113 96.7656 122.901ZM91.1719 9.93665C81.1169 7.70844 70.7955 13.1107 66.3389 22.9142C65.0965 25.6405 64.6534 28.528 64.4521 31.4806C64.281 34.0055 62.7822 35.6755 60.5791 35.8214C58.2101 35.9772 56.5455 34.5637 56.0576 31.9532C55.947 31.3647 55.8809 30.7608 55.8457 30.1622C55.0609 16.1638 41.1633 6.39551 27.6377 10.339C15.9932 13.7343 9.60985 25.0773 12.0293 37.8888C13.5685 46.0424 17.2361 53.15 22.3164 59.6085C30.6914 70.2569 41.415 78.0588 52.999 84.799C55.3581 86.1721 57.6675 88.3704 60.2881 88.3302C62.8984 88.2897 65.2221 86.142 67.5859 84.7638C79.4669 77.8425 90.4126 69.7539 98.8379 58.713C104.763 50.9517 108.757 42.3855 108.893 32.3859L108.883 32.3907C108.998 21.1788 102.032 12.341 91.1719 9.93665ZM94.1895 36.8722C95.7991 36.5553 97.2627 36.9031 98.3643 38.2159C99.506 39.584 99.6224 41.1128 99.0088 42.7374C97.2382 47.4154 94.6421 51.6058 91.4883 55.4689C88.0931 59.6286 84.2398 63.3303 80.1152 66.7657C79.0741 67.6359 77.9826 68.3954 76.5391 68.3702L76.5342 68.3654C74.8492 68.3553 73.5864 67.6661 72.8018 66.132C71.9268 64.427 72.178 62.8222 73.4102 61.4894C74.6274 60.1665 76.0466 59.0294 77.3896 57.8273C83.0081 52.7722 87.9579 47.2137 90.9004 40.1115C91.5291 38.5977 92.4091 37.2193 94.1895 36.8722ZM95.6934 23.7443C97.9366 23.6588 99.959 25.595 99.9844 27.8634L99.9795 27.8585C100.005 30.1019 98.0221 32.1292 95.7988 32.1241C93.6612 32.124 91.6643 30.2027 91.5938 28.0802C91.5183 25.8419 93.4198 23.8298 95.6934 23.7443Z" fill="#44AD49"/>
</svg>
