<svg width="233" height="101" viewBox="0 0 233 101" fill="none" xmlns="http://www.w3.org/2000/svg">
<path d="M137.216 28.5283C146.423 9.69101 165.475 -1.23387 186.346 0.256836C209.172 1.88476 228.886 20.5558 231.736 43.2334C235.338 71.9155 215.72 97.0672 186.889 99.9355C162.094 102.404 140.317 86.2208 134.067 63.418C132.845 58.9576 132.332 54.4076 132.159 49.7803C131.849 41.3485 125.862 35.0575 117.448 34.0557C110.12 33.1852 102.625 38.3255 100.508 45.6182C99.5239 49.0051 99.8636 52.5174 99.4521 55.958C96.6256 79.5479 77.5371 98.0748 53.8936 100.061C27.8888 102.243 4.17408 83.4355 0.339844 57.5977C0.262319 57.079 0.113275 56.5723 0 56.0596V44.2646C1.18664 36.9719 3.33321 30.019 7.37012 23.7578C15.7423 10.7702 27.5437 2.89882 42.833 0.686523C64.4072 -2.43194 85.141 8.73632 94.7773 28.3486C95.5366 29.891 96.5899 30.0807 97.9375 28.916C108.272 19.9833 124.044 20.025 134.271 29.1426C135.862 30.5614 136.351 30.2929 137.216 28.5283ZM49.75 11.9209C27.2992 11.9805 11.5741 29.7382 11.5381 50.0781C11.5023 70.6209 27.4061 88.3916 49.8213 88.3916C72.797 88.3916 88.2716 69.5716 87.9258 50.2334C88.3312 30.6508 72.6599 11.8614 49.75 11.9209ZM182.249 11.9209C159.309 11.8971 143.781 30.6749 144.115 50.0488C143.692 69.6016 159.315 88.4272 182.261 88.3916C204.652 88.3618 220.448 70.6573 220.502 50.2637C220.562 29.7745 204.718 11.9448 182.249 11.9209ZM202.773 47.8242C205.194 47.8242 207.467 49.5952 208.313 52.1055C208.612 52.9939 208.635 53.8829 208.486 54.7832C206.393 67.252 194.848 76.9485 182.332 76.7637V76.7568C179.142 76.7091 176.536 74.193 176.435 71.0684C176.333 67.932 178.963 65.2072 182.528 65.04C186.828 64.8373 190.4 63.2391 193.31 60.0908C195.373 57.8606 196.339 55.1232 197.103 52.249C197.794 49.6491 200.287 47.8242 202.773 47.8242ZM202.744 31.0322C205.833 31.0203 208.642 33.9066 208.576 37.0312C208.511 40.1319 205.851 42.6361 202.649 42.6064V42.6133C199.435 42.5894 196.99 40.0906 196.996 36.835C197.002 33.7283 199.655 31.0503 202.744 31.0322Z" fill="#44AD49"/>
</svg>
