<svg width="194" height="194" viewBox="0 0 194 194" fill="none" xmlns="http://www.w3.org/2000/svg">
<path d="M104.532 0.954102C106.016 1.1553 107.501 1.37639 108.984 1.5625C124.577 3.53432 138.797 9.06757 151.704 18.0059C157.026 21.6929 161.94 25.8681 166.392 30.5762C167.247 31.4815 167.921 31.9795 168.952 30.7773C169.928 29.6406 171.044 28.6143 172.131 27.5781C174.062 25.7371 176.256 25.6115 177.996 27.2061C179.631 28.7049 179.636 31.1844 177.921 33.0957C176.88 34.2627 175.803 35.425 174.601 36.4209C173.207 37.5778 173.167 38.4834 174.289 39.9873C181.754 49.997 187.015 61.0835 190.169 73.1807C191.562 78.5275 192.311 83.975 193.016 89.4375V105.252L193.011 105.242C192.307 110.71 191.532 116.157 190.164 121.514C180.909 157.725 150.844 185.938 113.929 192.312C83.5624 197.553 56.3846 190.104 33.0352 169.913C15.1031 154.406 4.41977 134.637 1.05469 111.207C-2.28014 88.0187 2.31168 66.2987 14.6201 46.2793C15.3242 45.1326 16.0942 44.1169 17.4873 43.7295C19.0566 43.2919 20.3544 43.7499 21.4258 44.8564C22.4569 45.9228 22.8447 47.2404 22.3066 48.6738C21.9998 49.4886 21.5622 50.2634 21.1045 51.0078C11.0294 67.4359 6.90998 85.3428 8.31836 104.462C11.2458 144.109 41.3802 177.367 80.5791 184.475C119.632 191.557 158.419 172.126 176.06 136.619C183.328 121.987 186.08 106.454 184.928 90.2422C184.118 78.8643 181.039 68.0397 175.964 57.8086C175.743 57.366 175.491 56.9436 175.078 56.1992C173.559 59.5238 170.964 61.3946 168.001 62.8281C166.799 63.4115 167.272 64.2166 167.634 65.0312C170.501 71.4144 172.548 78.0444 173.6 84.9707C176.929 106.927 171.99 126.886 158.575 144.536C145.849 161.281 128.882 171.406 108.078 174.435C84.7692 177.83 63.8949 171.724 45.9277 156.468C31.1898 143.953 22.2661 127.937 19.5146 108.818C16.1596 85.5093 22.2058 64.6344 37.4668 46.6621C50.0318 31.8688 66.1133 22.9961 85.2979 20.1943C105.886 17.1814 124.778 21.9192 141.84 33.8301C143.112 34.7203 143.822 35.0277 144.934 33.5039C146.845 30.8833 149.748 29.8061 152.896 29.459C152.967 28.6998 152.388 28.5435 152.031 28.2568C138.511 17.4171 123.154 10.9938 105.891 9.30371C83.5824 7.12068 63.2055 12.3878 44.9062 25.4307C43.2615 26.6025 41.5611 27.226 39.6699 26.1094C37.0948 24.5904 37.1551 21.1852 39.8105 19.2285C45.4391 15.0838 51.4855 11.6375 57.8887 8.84082C67.33 4.7162 77.1691 2.12602 87.4404 1.19043C87.7472 1.16023 88.0391 1.03457 88.3408 0.954102H104.532ZM138.575 41.29C122.565 29.6305 104.703 25.0585 85.2217 28.333C46.4002 34.8622 20.8682 71.3142 27.7744 109.799C34.4996 147.257 70.3283 172.579 107.928 166.442C141.649 160.939 166.498 131.649 166.578 97.3193L166.583 97.3145C166.593 87.194 164.465 77.5411 160.36 68.2959C159.762 66.9481 159.128 66.5456 157.659 67.0586C154.46 68.1752 151.156 69.1717 147.771 69.2119C142.942 69.2773 139.093 70.8812 136.171 74.8096C135.437 75.7954 135.145 76.4347 135.733 77.6016C139.757 85.6094 141.14 94.0603 140.079 102.979C137.212 127.147 113.748 144.707 89.6641 140.638C65.1829 136.498 48.895 113.571 53.6182 89.2861C56.928 72.2597 67.1946 60.7012 83.708 55.5605C100.091 50.4601 114.769 54.4336 127.374 66.0781C128.42 67.044 129.125 68.9701 130.407 68.8896C131.75 68.8038 132.61 67.0135 133.691 65.9824C134.632 65.0871 135.648 64.2568 135.658 62.7227C135.709 56.3096 137.197 50.1681 139.471 44.2178C139.999 42.8295 139.732 42.1301 138.575 41.29ZM123.329 73.417C114.909 64.3831 104.507 60.4539 92.3193 61.7617C74.4275 63.6882 60.8964 79.1461 61.0322 97.2793V97.2842C61.0322 98.7881 60.8615 100.312 61.0576 101.791C63.7084 121.931 82.058 135.703 102.168 132.69C124.697 129.31 138.45 105.332 129.964 84.2061C129.119 82.1037 128.999 82.0688 127.404 83.6582C118.577 92.4809 109.754 101.308 100.921 110.131C100.257 110.795 99.5831 111.469 98.8086 111.992C97.1185 113.129 95.0154 112.827 93.6875 111.368C92.4553 110.015 92.3447 107.872 93.4814 106.328C93.9241 105.73 94.4825 105.206 95.0156 104.673C104.417 95.2668 113.798 85.8511 123.244 76.4854C124.396 75.3435 124.456 74.6242 123.329 73.417ZM166.211 46.7324C165.944 45.6057 165.451 45.6156 164.696 46.3701C160.104 50.9775 155.502 55.5649 150.769 60.293H150.764C151.438 60.6802 151.97 60.3639 152.418 60.2432C155.813 59.3629 159.118 58.211 162.292 56.707C168.559 53.7293 168.595 53.6387 166.321 47.0898C166.281 46.9742 166.236 46.8531 166.211 46.7324ZM154.979 37.9805C152.504 37.2059 151.498 37.6129 150.23 39.9414C148.213 43.6385 146.549 47.482 145.487 51.5664C145.261 52.4316 144.692 53.2716 145.16 54.4688C149.893 49.7506 154.536 45.1276 159.174 40.5C159.913 39.7607 159.425 39.4286 158.73 39.1973C157.483 38.7798 156.236 38.3728 154.979 37.9805ZM28.9668 30.1836C31.2602 30.1637 33.0758 31.9492 33.0156 34.1621C32.9553 36.3098 31.1748 37.9896 28.9668 37.9697V37.9756C26.7688 37.9605 25.0226 36.2349 25.0225 34.0771C25.0225 31.9142 26.7586 30.1987 28.9668 30.1836Z" fill="#44AD49"/>
</svg>
