<svg width="51" height="51" viewBox="0 0 51 51" fill="none" xmlns="http://www.w3.org/2000/svg">
<path d="M25.3965 0C39.3858 4.1235e-05 50.7266 11.3407 50.7266 25.3301C50.7265 39.3194 39.3858 50.6601 25.3965 50.6602C11.4071 50.6602 0.0664485 39.3194 0.0664062 25.3301C0.0664062 11.3407 11.4071 0 25.3965 0ZM25.3965 3C13.064 3 3.06641 12.9976 3.06641 25.3301C3.06645 37.6626 13.064 47.6602 25.3965 47.6602C37.7289 47.6601 47.7265 37.6625 47.7266 25.3301C47.7266 12.9976 37.729 3.00004 25.3965 3ZM30.8164 14C34.0364 14 36.5664 16.53 36.5664 19.75V31.25C36.5664 34.47 34.0364 37 30.8164 37H19.3164C16.0964 37 13.5664 34.47 13.5664 31.25V19.75C13.5664 16.53 16.0964 14 19.3164 14H30.8164ZM19.3164 16.2998C17.3614 16.2998 15.8662 17.795 15.8662 19.75V31.25C15.8662 33.205 17.3614 34.7002 19.3164 34.7002H30.8164C32.7714 34.7002 34.2666 33.205 34.2666 31.25V19.75C34.2666 17.795 32.7714 16.2998 30.8164 16.2998H19.3164ZM25.0664 19.75C28.2864 19.75 30.8164 22.28 30.8164 25.5C30.8164 28.72 28.2864 31.25 25.0664 31.25C21.8464 31.25 19.3164 28.72 19.3164 25.5C19.3164 22.28 21.8464 19.75 25.0664 19.75ZM25.0664 22.0498C23.1114 22.0498 21.6162 23.545 21.6162 25.5C21.6162 27.455 23.1114 28.9502 25.0664 28.9502C27.0214 28.9502 28.5166 27.455 28.5166 25.5C28.5166 23.545 27.0214 22.0498 25.0664 22.0498ZM30.8164 18.6006C31.4513 18.6008 31.9658 19.115 31.9658 19.75C31.9658 20.385 31.4514 20.9002 30.8164 20.9004C30.1813 20.9004 29.666 20.3851 29.666 19.75C29.6661 19.1149 30.1813 18.6006 30.8164 18.6006Z" fill="white"/>
</svg>
