<svg width="23" height="17" viewBox="0 0 23 17" fill="none" xmlns="http://www.w3.org/2000/svg">
<path d="M0.746094 14.0863C0.746094 10.3185 0.746094 6.55117 0.746094 2.78335C0.761831 2.72159 0.778111 2.66037 0.793848 2.59861C1.12921 1.29523 2.21399 0.440279 3.57553 0.438667C9.02058 0.433834 14.4651 0.432223 19.9102 0.439741C21.5284 0.441889 22.7434 1.66471 22.7445 3.26239C22.7466 6.71067 22.7466 10.159 22.7445 13.6072C22.7434 15.1947 21.5343 16.4256 19.9319 16.4288C14.4727 16.4385 9.01353 16.4336 3.55436 16.431C2.97534 16.431 2.43865 16.2725 1.95731 15.9471C1.28984 15.4955 0.907264 14.8612 0.746094 14.0868V14.0863ZM2.60037 3.47505C2.54773 3.57225 2.56401 3.64421 2.56401 3.71349C2.56292 6.97704 2.56292 10.2411 2.56401 13.5047C2.56401 14.2286 2.92705 14.5954 3.65476 14.5954C9.04175 14.597 14.4282 14.597 19.8152 14.5954C20.5472 14.5954 20.913 14.2307 20.913 13.5117C20.9135 10.2481 20.9135 6.98402 20.9119 3.72047C20.9119 3.6469 20.939 3.56581 20.881 3.49707C20.7963 3.51425 20.7437 3.57547 20.6829 3.62166C17.9311 5.72414 15.1798 7.8277 12.4279 9.92964C11.9178 10.3195 11.5602 10.3206 11.0545 9.93394C8.7384 8.16442 6.42395 6.39382 4.10842 4.62376C3.6108 4.24354 3.11264 3.8644 2.60091 3.47451L2.60037 3.47505ZM19.4028 2.29411H4.08292C4.18168 2.37521 4.2392 2.42515 4.29998 2.47134C6.70071 4.30691 9.10307 6.14034 11.4989 7.98183C11.6802 8.12146 11.7947 8.12199 11.9765 7.98183C14.3045 6.19243 16.6395 4.41163 18.9724 2.62815C19.101 2.52987 19.228 2.42945 19.4028 2.29358V2.29411Z" fill="white"/>
</svg>
