<svg width="260" height="52" viewBox="0 0 260 52" fill="none" xmlns="http://www.w3.org/2000/svg">
<path d="M56.4355 24.674C56.4787 24.8378 56.5291 24.9675 56.542 25.0998C56.5606 25.2981 56.5547 25.4996 56.5547 25.6994L56.5527 25.6965C56.5542 33.9871 56.5542 42.2778 56.5527 50.5685C56.5527 50.8646 56.5922 51.168 56.4688 51.4914C56.3508 51.5201 56.2192 51.5596 56.0869 51.5812C55.9879 51.5955 55.8875 51.5881 55.7871 51.5881C53.0635 51.5895 50.3408 51.5909 47.6172 51.5881C47.3613 51.5881 47.0964 51.6168 46.8262 51.4445C46.7744 50.8809 46.8075 50.3027 46.8018 49.7248V39.1642C46.6033 39.2491 46.5326 39.393 46.4463 39.5138C44.9492 41.5933 43.4531 43.6741 41.9561 45.755C41.7807 45.998 41.6098 46.2454 41.4258 46.4826C41.3553 46.5732 41.2591 46.6428 41.1699 46.7248C40.9183 46.5968 40.807 46.3765 40.6689 46.1867C39.6565 44.7946 38.6487 43.399 37.6377 42.0041C37.0511 41.1932 36.463 40.3838 35.875 39.5744C35.8045 39.478 35.7263 39.3882 35.6572 39.3019C35.4962 39.3451 35.5307 39.4637 35.5264 39.5529C35.5178 39.7324 35.5225 39.9134 35.5225 40.0929C35.5225 43.6178 35.5234 47.1433 35.5205 50.6681C35.5205 50.9427 35.5554 51.2262 35.4404 51.4777C35.2893 51.5738 35.1364 51.5885 34.9863 51.59H26.3242C26.1596 51.5891 25.9948 51.5749 25.8438 51.466C25.7273 51.2244 25.7744 50.9593 25.7744 50.7033C25.7715 47.6201 25.7715 44.5355 25.7715 41.4523C25.7715 40.1307 25.7701 38.8091 25.7744 37.4875C25.7759 37.2761 25.7291 37.0492 25.8887 36.8234C26.0208 36.8564 26.1573 36.8704 26.2793 36.922C27.2054 37.3132 28.1733 37.5696 29.1641 37.7062C30.2743 37.8587 31.3876 37.9303 32.5137 37.7951C33.3305 37.6959 34.1372 37.5749 34.9238 37.342C36.5906 36.8501 38.0248 35.9575 39.2529 34.7394C39.9921 34.006 40.6796 33.2203 41.4131 32.4826C42.8151 31.0733 44.0657 29.5414 45.2305 27.9338C45.9006 27.0106 46.6012 26.1091 47.2871 25.1974C47.359 25.1011 47.4344 25.0071 47.5049 24.9093C47.6144 24.7559 47.7524 24.6626 47.9336 24.6496H55.7637C55.9808 24.6496 56.1983 24.6654 56.4355 24.674ZM126.796 29.6193C127.732 29.6193 128.593 29.7674 129.377 30.0607C130.161 30.354 130.841 30.7715 131.419 31.3107H131.421C131.998 31.85 132.446 32.4814 132.769 33.2062C133.089 33.9295 133.25 34.7376 133.25 35.5988C133.25 36.4601 133.089 37.2555 132.769 37.9845C132.448 38.715 131.998 39.3496 131.421 39.8888C130.844 40.4281 130.164 40.844 129.379 41.1388C128.594 41.4336 127.751 41.5802 126.813 41.5802C125.876 41.5802 125.012 41.4322 124.223 41.1388C123.433 40.8455 122.748 40.4281 122.172 39.8888C121.595 39.3496 121.146 38.715 120.825 37.9845C120.505 37.254 120.343 36.4688 120.343 35.5988C120.343 34.7289 120.503 33.9309 120.825 33.2062C121.146 32.4815 121.594 31.8499 122.172 31.3107C122.75 30.7715 123.433 30.3541 124.223 30.0607C125.012 29.7659 125.86 29.6193 126.796 29.6193ZM189.438 29.6193C190.374 29.6193 191.235 29.7674 192.019 30.0607C192.802 30.354 193.482 30.7715 194.061 31.3107H194.062C194.639 31.85 195.088 32.4814 195.41 33.2062C195.731 33.9295 195.892 34.7376 195.892 35.5988C195.892 36.4601 195.731 37.2555 195.41 37.9845C195.089 38.715 194.639 39.3496 194.062 39.8888C193.486 40.4281 192.806 40.844 192.021 41.1388C191.235 41.4336 190.393 41.5802 189.455 41.5802C188.517 41.5802 187.654 41.4322 186.864 41.1388C186.075 40.8455 185.39 40.4281 184.813 39.8888C184.237 39.3496 183.787 38.715 183.467 37.9845C183.146 37.254 182.984 36.4688 182.984 35.5988C182.984 34.7289 183.145 33.9309 183.467 33.2062C183.787 32.4815 184.235 31.8499 184.813 31.3107C185.392 30.7715 186.075 30.3541 186.864 30.0607C187.654 29.7659 188.501 29.6193 189.438 29.6193ZM80.7529 32.7902H75.248V34.1291H80.085V36.9074H75.248V38.4103H80.9658V41.3185H71.457V29.881H80.7529V32.7902ZM91.21 41.3185H87.3545V29.881H91.21V41.3185ZM99.9727 35.9689L103.595 29.881H106.765L106.798 41.3185H103.284L103.257 36.1007L100.768 40.2892H99.0693L96.5859 36.2824V41.3185H93.0723V29.881H96.2422L99.9727 35.9689ZM114.165 29.881C115.233 29.881 116.155 30.0565 116.935 30.4045L116.934 30.4035C117.711 30.7529 118.314 31.2516 118.738 31.8986C119.163 32.5458 119.375 33.3115 119.375 34.1945C119.375 35.0773 119.162 35.8398 118.738 36.4826C118.314 37.1252 117.711 37.624 116.934 37.9777C116.154 38.3315 115.23 38.508 114.163 38.508H112.514V41.3185H108.658V29.881H114.165ZM156.353 32.8713H153.003V41.3185H149.147V32.8713H145.798V29.881H156.353V32.8713ZM169.326 41.3185H165.339L164.573 39.3254H160.223L159.456 41.3185H155.534L160.534 29.881H164.327L169.326 41.3185ZM175.583 29.881C176.857 29.881 177.979 30.1123 178.948 30.5754C179.917 31.0383 180.674 31.6944 181.219 32.5441C181.764 33.394 182.036 34.3968 182.036 35.5832C182.036 36.7696 181.764 37.791 181.219 38.6466C180.674 39.5022 179.917 40.1612 178.948 40.6242C177.979 41.0872 176.857 41.3185 175.583 41.3185H169.945V29.881H175.583ZM140.161 29.88C141.23 29.8801 142.151 30.0555 142.931 30.4035C143.709 30.7529 144.311 31.2516 144.735 31.8986C145.16 32.5458 145.373 33.3115 145.373 34.1945C145.373 35.0773 145.16 35.8368 144.735 36.4738C144.364 37.0287 143.858 37.4712 143.217 37.799L145.617 41.3175H141.5L139.56 38.4406H138.51V41.3175H134.654V29.88H140.161ZM202.804 29.88C203.872 29.88 204.794 30.0555 205.573 30.4035C206.351 30.7529 206.954 31.2516 207.378 31.8986C207.802 32.5458 208.016 33.3115 208.016 34.1945C208.016 35.0773 207.802 35.8368 207.378 36.4738C207.007 37.0287 206.501 37.4712 205.859 37.799L208.24 41.2882L213.228 29.881L213.229 29.88H217.02L222.019 41.3175H218.032L217.266 39.3234H212.915L212.148 41.3175H204.143L202.202 38.4406H201.152V41.3175H197.297V29.88H202.804ZM126.794 32.7404C126.435 32.7405 126.1 32.8049 125.789 32.9357C125.479 33.0665 125.207 33.2549 124.973 33.4992C124.738 33.7451 124.556 34.0448 124.425 34.3986C124.295 34.7523 124.229 35.1517 124.229 35.5988C124.229 36.0461 124.294 36.4462 124.425 36.8C124.556 37.1537 124.738 37.454 124.973 37.6984C125.207 37.9429 125.478 38.132 125.789 38.2629C126.1 38.3937 126.435 38.4581 126.794 38.4582C127.153 38.4582 127.489 38.3937 127.8 38.2629C128.11 38.132 128.382 37.9429 128.616 37.6984C128.851 37.4525 129.033 37.1537 129.164 36.8C129.295 36.4462 129.36 36.0446 129.36 35.5988C129.36 35.1532 129.295 34.7523 129.164 34.3986C129.033 34.0448 128.851 33.7437 128.616 33.4992C128.382 33.2534 128.11 33.0665 127.8 32.9357C127.489 32.8048 127.153 32.7404 126.794 32.7404ZM189.436 32.7404C189.076 32.7405 188.741 32.8049 188.431 32.9357C188.12 33.0665 187.849 33.2549 187.614 33.4992C187.38 33.7451 187.197 34.0448 187.066 34.3986C186.937 34.7523 186.87 35.1517 186.87 35.5988C186.87 36.0461 186.936 36.4462 187.066 36.8C187.197 37.1537 187.38 37.454 187.614 37.6984C187.849 37.9429 188.12 38.132 188.431 38.2629C188.741 38.3937 189.076 38.4581 189.436 38.4582C189.795 38.4582 190.131 38.3937 190.441 38.2629C190.752 38.132 191.023 37.9429 191.258 37.6984C191.492 37.4525 191.675 37.1537 191.806 36.8C191.937 36.4462 192.002 36.0446 192.002 35.5988C192.002 35.1532 191.936 34.7523 191.806 34.3986C191.675 34.0448 191.492 33.7437 191.258 33.4992C191.023 33.2535 190.752 33.0665 190.441 32.9357C190.131 32.8048 189.795 32.7404 189.436 32.7404ZM173.801 38.3127H175.419C175.963 38.3127 176.44 38.2092 176.849 38.0021C177.257 37.7951 177.576 37.4875 177.805 37.0793C178.033 36.6708 178.148 36.1599 178.148 35.5832C178.148 35.0065 178.033 34.5161 177.805 34.1134C177.576 33.7109 177.257 33.4064 176.849 33.1994C176.44 32.9923 175.964 32.8879 175.419 32.8879H173.801V38.3127ZM213.982 36.548H216.197L215.09 33.6681L213.982 36.548ZM161.29 36.547H163.504L162.396 33.6662L161.29 36.547ZM201.152 35.5363H202.558C203.091 35.5363 203.487 35.4161 203.743 35.1759C203.999 34.9358 204.127 34.6094 204.127 34.1955C204.127 33.7815 203.999 33.4551 203.743 33.215V33.216C203.487 32.9758 203.091 32.8566 202.558 32.8566H201.152V35.5363ZM112.516 35.5343H113.921C114.454 35.5343 114.85 35.415 115.105 35.175V35.1759C115.361 34.9358 115.489 34.6096 115.489 34.1955C115.489 33.7814 115.361 33.4552 115.105 33.215C114.85 32.9749 114.454 32.8557 113.921 32.8556H112.516V35.5343ZM138.51 35.5343H139.915C140.449 35.5343 140.845 35.4151 141.101 35.175C141.356 34.9349 141.484 34.6084 141.484 34.1945C141.484 33.7804 141.357 33.4532 141.101 33.2131V33.215C140.845 32.9748 140.449 32.8556 139.915 32.8556H138.51V35.5343ZM0.900391 0.00211716C5.10545 0.00211716 9.30954 0.00217061 13.5117 0.00504684H14.1533C14.3934 0.193408 14.4922 0.439856 14.6201 0.661297C15.8238 2.76237 17.0248 4.8664 18.2256 6.96891C18.3838 7.24647 18.5421 7.5258 18.7031 7.80192C18.7405 7.86507 18.7942 7.9207 18.8545 7.99821C19.0743 7.82568 19.1594 7.59737 19.2744 7.3947C20.5687 5.13692 21.857 2.87754 23.1484 0.618328C23.2577 0.42864 23.3754 0.24435 23.4961 0.0460625C23.67 0.0302502 23.8257 0.00506853 23.9824 0.00504684C28.3471 0.00360873 32.7134 0.00360873 37.0781 0.00504684C37.255 0.00504684 37.4304 0.0257112 37.5713 0.0343437C37.751 0.244304 37.7149 0.453022 37.7178 0.648602C37.7235 1.13027 37.7207 1.61075 37.7207 2.09098C37.7207 4.0726 37.7221 6.05566 37.7207 8.03727C37.7207 8.25443 37.7049 8.4717 37.6934 8.77946C37.4893 8.73062 37.3711 8.71999 37.2676 8.67399C36.497 8.33043 35.6932 8.08919 34.8594 7.96696C33.8686 7.82173 32.8776 7.7294 31.8711 7.84294C31.0356 7.93785 30.2027 8.03757 29.3916 8.26188C28.0168 8.64155 26.7857 9.27882 25.7891 10.3215C24.6603 11.5021 24.0846 12.9139 24.0342 14.5431C24.0083 15.3844 24.0098 16.2277 24.2744 17.0402V17.0382C24.4053 17.4365 24.5468 17.8335 24.7236 18.2131C24.958 18.7178 24.9691 18.6971 24.6211 19.1789C24.0834 19.925 23.5455 20.6725 23.0078 21.4201C21.7811 23.1271 20.5552 24.836 19.3242 26.5402C19.1992 26.7142 19.1071 26.9267 18.8857 27.0187C18.6458 26.9467 18.5606 26.7254 18.4355 26.5529C17.1399 24.7726 15.8504 22.9874 14.5576 21.2043C13.794 20.1502 13.0311 19.0977 12.2646 18.0451C12.1885 17.9402 12.0933 17.8499 11.9424 17.6818C11.8863 18.6135 11.9208 19.4475 11.915 20.2814C11.9093 21.1227 11.9141 21.9645 11.9141 22.8058V30.3156C11.9126 31.1539 11.9225 31.9924 11.9053 32.8566C11.7443 32.9026 11.6191 32.9475 11.4883 32.9748C11.4106 32.9906 11.3286 32.9826 11.248 32.9826C7.74337 32.9826 4.24003 32.984 0.735352 32.9826C0.51979 32.9826 0.292778 33.0116 0.0800781 32.8322C0.0700147 32.6942 0.0497618 32.5372 0.046875 32.3791C-0.0394023 27.3347 0.00333283 0.79377 0.102539 0.0919609C0.198893 0.0646367 0.308725 0.0194815 0.420898 0.00797653C0.57881 -0.00633859 0.739613 0.00210099 0.900391 0.00211716ZM31.3477 25.3351C32.7698 26.8809 34.1887 28.4285 35.6123 29.9728C36.084 30.4848 36.0813 30.5012 35.5176 30.9269C34.9929 31.3237 34.4666 31.7332 33.8916 32.048C32.5556 32.78 31.1558 32.8812 29.7363 32.2873C29.4445 32.1651 29.1646 31.9991 28.9072 31.8136C27.3627 30.6991 27.0949 28.6253 28.0254 27.1613C28.1217 27.0104 28.225 26.8608 28.3428 26.7257H28.3418C29.0349 25.9263 29.9283 25.4032 30.876 24.8625C31.0671 25.0535 31.214 25.19 31.3477 25.3351ZM37.6338 21.255C37.664 21.3399 37.7037 21.4097 37.7109 21.4816C37.7626 21.9771 37.7213 24.3632 37.6494 24.7697C37.5489 24.7367 37.4808 24.7339 37.4463 24.6994C37.1882 24.438 36.0989 22.8642 35.9336 22.5207C36.0415 22.3065 36.2874 22.2287 36.46 22.0734C36.6382 21.9124 36.8225 21.7587 37.0137 21.6134C37.1963 21.4754 37.339 21.2579 37.6338 21.255ZM25.582 19.5666C25.6338 19.5867 25.7043 19.5946 25.7402 19.632C26.2895 20.2129 26.8363 20.7983 27.3799 21.3849C27.4315 21.4396 27.4528 21.5219 27.4844 21.5822L27.3086 21.7824C26.8268 22.2939 25.9179 23.0436 25.5752 23.1965C25.4027 22.8629 25.3938 22.6843 25.4355 20.1232C25.4385 19.923 25.4872 19.7371 25.582 19.5666ZM89.3652 10.0138C90.3013 10.0139 91.1626 10.1619 91.9463 10.4552C92.7301 10.7486 93.4102 11.1659 93.9883 11.7052C94.5648 12.2444 95.0138 12.8752 95.3359 13.5998C95.6566 14.3231 95.8174 15.1319 95.8174 15.9933C95.8174 16.8547 95.6566 17.65 95.3359 18.3791H95.3379C95.0172 19.1096 94.5669 19.7441 93.9902 20.2834C93.4136 20.8226 92.7334 21.2386 91.9482 21.5334C91.163 21.8282 90.3195 21.9748 89.3818 21.9748C88.4443 21.9747 87.5814 21.8267 86.792 21.5334C86.0025 21.24 85.3179 20.8227 84.7412 20.2834C84.1645 19.7441 83.7142 19.1096 83.3936 18.3791C83.0729 17.6486 82.9121 16.8647 82.9121 15.9933C82.9121 15.1218 83.0714 14.3246 83.3936 13.5998C83.7142 12.8752 84.1633 12.2444 84.7412 11.7052C85.3193 11.166 86.0026 10.7486 86.792 10.4552C87.5815 10.1604 88.429 10.0138 89.3652 10.0138ZM141.894 10.009C143.015 10.009 144.009 10.2052 144.875 10.5978C145.741 10.9904 146.457 11.5566 147.023 12.297L144.589 14.4699C144.251 14.0458 143.878 13.7169 143.47 13.4826C143.061 13.2497 142.602 13.1311 142.09 13.131C141.687 13.131 141.322 13.1964 140.995 13.3273C140.669 13.4582 140.389 13.6494 140.154 13.8996C139.92 14.1512 139.737 14.4531 139.606 14.8068C139.477 15.1605 139.41 15.5558 139.41 15.9914C139.41 16.4271 139.476 16.8231 139.606 17.1769C139.737 17.532 139.92 17.834 140.154 18.0841C140.389 18.3357 140.669 18.5256 140.995 18.6564C141.322 18.7858 141.687 18.8527 142.09 18.8527C142.602 18.8527 143.061 18.7354 143.47 18.5011C143.878 18.2682 144.251 17.9379 144.589 17.5138L147.023 19.6867C146.457 20.4171 145.741 20.9788 144.875 21.3771C144.009 21.7755 143.015 21.9748 141.894 21.9748C140.978 21.9747 140.13 21.8302 139.353 21.5412C138.573 21.2521 137.898 20.8412 137.326 20.3078V20.3019C136.754 19.7684 136.311 19.1369 135.995 18.4064C135.68 17.6774 135.522 16.8708 135.521 15.9894C135.521 15.1079 135.679 14.302 135.995 13.5715C136.311 12.8424 136.754 12.2094 137.326 11.6759C137.898 11.1425 138.573 10.7316 139.353 10.4425C140.132 10.1535 140.979 10.009 141.894 10.009ZM226.705 10.0138C227.641 10.0138 228.502 10.162 229.286 10.4552C230.07 10.7486 230.751 11.1659 231.329 11.7052H231.33C231.907 12.2444 232.356 12.8752 232.678 13.5998C232.998 14.3231 233.159 15.1319 233.159 15.9933C233.159 16.8547 232.998 17.65 232.678 18.3791C232.357 19.1096 231.907 19.7441 231.33 20.2834C230.753 20.8226 230.073 21.2386 229.288 21.5334C228.503 21.8281 227.66 21.9748 226.723 21.9748C225.785 21.9748 224.922 21.8266 224.133 21.5334C223.343 21.24 222.659 20.8225 222.082 20.2834C221.505 19.7441 221.055 19.1096 220.734 18.3791C220.414 17.6485 220.252 16.8648 220.252 15.9933C220.252 15.1218 220.412 14.3246 220.734 13.5998C221.055 12.8752 221.504 12.2444 222.082 11.7052C222.66 11.1659 223.343 10.7486 224.133 10.4552C224.922 10.1605 225.769 10.0138 226.705 10.0138ZM77.3721 10.0119C78.4938 10.0119 79.4878 10.2082 80.3535 10.6007C81.2191 10.9933 81.9354 11.5595 82.502 12.3L80.0674 14.4728C79.7295 14.0487 79.3566 13.7199 78.9482 13.4855C78.5399 13.2527 78.0801 13.134 77.5684 13.134C77.1657 13.134 76.8001 13.1994 76.4736 13.3302C76.1473 13.4611 75.8672 13.6524 75.6328 13.9025V13.8966C75.3984 14.1483 75.2158 14.4502 75.085 14.8039C74.9555 15.1577 74.8887 15.5537 74.8887 15.9894C74.8887 16.425 74.9541 16.8203 75.085 17.174C75.2158 17.5291 75.3984 17.831 75.6328 18.0812C75.8672 18.3328 76.1473 18.5226 76.4736 18.6535C76.8001 18.7829 77.1657 18.8498 77.5684 18.8498C78.0801 18.8497 78.5399 18.7325 78.9482 18.4982C79.3566 18.2653 79.7295 17.935 80.0674 17.5109L82.502 19.6838C81.9354 20.4142 81.2191 20.9769 80.3535 21.3752C79.4879 21.7734 78.4936 21.9718 77.3721 21.9718C76.4562 21.9718 75.6089 21.8273 74.8311 21.5382C74.0518 21.2492 73.377 20.8383 72.8047 20.3049C72.2324 19.7714 71.79 19.1398 71.4736 18.4093C71.1587 17.6802 71 16.8729 71 15.9914C71.0001 15.11 71.1573 14.3048 71.4736 13.5744C71.79 12.8454 72.2324 12.2124 72.8047 11.6789C73.377 11.1454 74.0518 10.7345 74.8311 10.4455C75.6104 10.1565 76.4576 10.0119 77.3721 10.0119ZM104.123 16.3625L107.745 10.2756H110.915L110.948 21.7131H107.435L107.407 16.4953L104.918 20.6828H103.22L100.736 16.6759V21.7131H97.2227V10.2756H100.393L104.123 16.3625ZM122.106 13.1828H116.6V14.5236H121.437V17.3009H116.6V18.8029H122.319V21.7131H112.811V10.2756H122.106V13.1828ZM129.313 10.2736C130.38 10.2736 131.304 10.4491 132.083 10.797C132.861 11.1465 133.463 11.646 133.888 12.2931C134.312 12.9402 134.525 13.7051 134.525 14.5881C134.525 15.471 134.312 16.2303 133.888 16.8674C133.517 17.4239 133.011 17.8676 132.369 18.1955L134.77 21.7131H130.652L128.712 18.8361H127.662V21.7111H123.807V10.2736H129.313ZM151.989 21.7131H148.134V10.2756H151.989V21.7131ZM166.4 21.7131H162.414L161.647 19.7199H157.3L156.533 21.7131H152.611L157.61 10.2756H161.401L166.4 21.7131ZM170.878 18.7228H176.041V21.7131H167.021V10.2756H170.878V18.7228ZM180.957 21.7131H177.102V10.2756H180.957V21.7131ZM206.593 21.7131H202.606L201.84 19.7199H197.491L196.725 21.7131H182.412V19.3439L187.633 13.2668H182.575V10.2765H192.656V12.6457L187.436 18.7228H192.918V21.4513L197.803 10.2756H201.594L206.593 21.7131ZM212.851 10.2756C214.125 10.2756 215.247 10.5068 216.216 10.9699C217.185 11.4329 217.941 12.0888 218.486 12.9386C219.031 13.7886 219.304 14.7913 219.304 15.9777C219.304 17.1639 219.031 18.1846 218.486 19.0402C217.941 19.8958 217.185 20.5547 216.216 21.0177C215.247 21.4808 214.125 21.713 212.851 21.7131H207.213V10.2756H212.851ZM240.071 10.2736C241.14 10.2736 242.061 10.4491 242.841 10.797C243.619 11.1465 244.221 11.646 244.646 12.2931C245.07 12.9402 245.283 13.7051 245.283 14.5881C245.283 15.471 245.07 16.2303 244.646 16.8674C244.274 17.4225 243.768 17.8656 243.127 18.1935L245.507 21.6828L250.494 10.2756H254.285L259.284 21.7131H255.298L255.299 21.7111L254.533 19.7179H250.183L249.416 21.7111H241.41L239.47 18.8351H238.42V21.7111H234.564V10.2736H240.071ZM31.6465 12.7345C32.62 12.3579 33.5745 12.4372 34.4805 12.9377C35.6784 13.5978 36.1073 15.1133 35.4443 16.3156C35.2818 16.6104 35.073 16.8868 34.8516 17.1427C34.2906 17.7898 33.2778 18.5242 32.3906 18.9455V18.9474C31.4776 18.2141 30.6899 17.4056 30.1895 16.3488C29.6559 15.2213 29.9006 13.409 31.6465 12.7345ZM89.3633 13.134C89.0039 13.134 88.669 13.1994 88.3584 13.3302C88.0478 13.4611 87.7754 13.6493 87.541 13.8937C87.3068 14.1396 87.124 14.4386 86.9932 14.7922C86.8637 15.1459 86.7979 15.5461 86.7979 15.9933C86.7979 16.4406 86.8623 16.8407 86.9932 17.1945C87.124 17.5481 87.3068 17.8485 87.541 18.0929C87.7754 18.3374 88.0478 18.5255 88.3584 18.6564C88.669 18.7858 89.0039 18.8527 89.3633 18.8527C89.7228 18.8527 90.0585 18.7873 90.3691 18.6564C90.6796 18.5256 90.9512 18.3373 91.1855 18.0929C91.4199 17.8471 91.6025 17.5481 91.7334 17.1945C91.8643 16.8407 91.9287 16.4391 91.9287 15.9933C91.9287 15.5475 91.8643 15.1459 91.7334 14.7922C91.6025 14.4385 91.4199 14.1381 91.1855 13.8937C90.9512 13.6479 90.6796 13.4611 90.3691 13.3302C90.0585 13.2008 89.7228 13.134 89.3633 13.134ZM226.704 13.134C226.345 13.134 226.009 13.1994 225.698 13.3302C225.388 13.4611 225.116 13.6494 224.882 13.8937C224.647 14.1396 224.465 14.4385 224.334 14.7922C224.205 15.1459 224.138 15.5461 224.138 15.9933C224.138 16.4406 224.203 16.8407 224.334 17.1945C224.465 17.5481 224.648 17.8486 224.882 18.0929C225.116 18.3373 225.388 18.5256 225.698 18.6564C226.009 18.7858 226.345 18.8527 226.704 18.8527C227.063 18.8527 227.398 18.7872 227.709 18.6564C228.019 18.5256 228.291 18.3373 228.525 18.0929C228.76 17.8471 228.943 17.5482 229.074 17.1945C229.205 16.8407 229.27 16.4391 229.27 15.9933C229.27 15.5475 229.205 15.1459 229.074 14.7922C228.943 14.4384 228.76 14.1382 228.525 13.8937C228.291 13.6479 228.019 13.4611 227.709 13.3302C227.398 13.2009 227.063 13.134 226.704 13.134ZM211.068 18.7052H212.687C213.232 18.7052 213.708 18.6018 214.116 18.3947C214.524 18.1876 214.844 17.8801 215.072 17.4718C215.302 17.0634 215.416 16.5524 215.416 15.9757C215.416 15.3992 215.301 14.9086 215.072 14.506C214.844 14.1036 214.524 13.799 214.116 13.592C213.708 13.3849 213.232 13.2814 212.687 13.2814H211.068V18.7052ZM158.364 16.9425H160.579L159.472 14.0617L158.364 16.9425ZM198.558 16.9425H200.772L199.665 14.0617L198.558 16.9425ZM251.25 16.9425H253.464L252.356 14.0617L251.25 16.9425ZM238.42 15.9299H239.825C240.359 15.9298 240.754 15.8105 241.01 15.5705C241.266 15.3304 241.394 15.004 241.395 14.59C241.395 14.1758 241.266 13.8487 241.01 13.6086V13.6105C240.754 13.3704 240.359 13.2512 239.825 13.2511H238.42V15.9299ZM127.662 15.9289H129.067C129.601 15.9289 129.997 15.8097 130.253 15.5695C130.509 15.3293 130.637 15.0022 130.637 14.5881C130.637 14.1741 130.509 13.8477 130.253 13.6076V13.6086C129.997 13.3684 129.601 13.2492 129.067 13.2492H127.662V15.9289Z" fill="#FFF7F0"/>
</svg>
