<svg width="189" height="219" viewBox="0 0 189 219" fill="none" xmlns="http://www.w3.org/2000/svg">
<path d="M55.7969 206.101C56.7329 206.101 57.5943 206.249 58.3779 206.542C59.1615 206.835 59.8419 207.252 60.4199 207.791H60.4219C60.9984 208.33 61.4464 208.962 61.7686 209.687C62.0893 210.41 62.251 211.219 62.251 212.08C62.2509 212.941 62.0892 213.737 61.7686 214.466C61.4479 215.196 60.9985 215.831 60.4219 216.37C59.8452 216.909 59.1641 217.324 58.3789 217.619C57.5938 217.914 56.751 218.061 55.8135 218.061C54.8759 218.061 54.0131 217.912 53.2236 217.619C52.4342 217.326 51.7495 216.909 51.1729 216.37C50.5962 215.831 50.1459 215.196 49.8252 214.466C49.5045 213.735 49.3438 212.95 49.3438 212.08C49.3438 211.21 49.5031 210.411 49.8252 209.687C50.1459 208.962 50.5948 208.33 51.1729 207.791C51.7509 207.252 52.4342 206.835 53.2236 206.542C54.0132 206.247 54.8607 206.101 55.7969 206.101ZM118.438 206.101C119.374 206.101 120.235 206.249 121.019 206.542C121.802 206.835 122.483 207.252 123.061 207.791H123.062C123.639 208.33 124.087 208.962 124.409 209.687C124.73 210.41 124.892 211.219 124.892 212.08C124.892 212.941 124.73 213.737 124.409 214.466C124.088 215.196 123.639 215.831 123.062 216.37C122.486 216.909 121.805 217.324 121.02 217.619C120.234 217.914 119.392 218.061 118.454 218.061C117.517 218.061 116.654 217.912 115.864 217.619C115.075 217.326 114.39 216.909 113.813 216.37C113.237 215.831 112.787 215.196 112.466 214.466C112.145 213.735 111.984 212.95 111.984 212.08C111.984 211.21 112.144 210.411 112.466 209.687C112.787 208.962 113.235 208.33 113.813 207.791C114.392 207.252 115.075 206.835 115.864 206.542C116.654 206.247 117.501 206.101 118.438 206.101ZM9.75293 209.271H4.24805V210.609H9.08398V213.388H4.24805V214.891H9.96582V217.799H0.457031V206.361H9.75293V209.271ZM20.209 217.799H16.3535V206.361H20.209V217.799ZM28.9717 212.449L32.5947 206.361H35.7646L35.7979 217.799H32.2842L32.2568 212.581L29.7676 216.77H28.0693L25.585 212.763V217.799H22.0723V206.361H25.2412L28.9717 212.449ZM43.165 206.362C44.2334 206.362 45.1552 206.538 45.9346 206.886L45.9326 206.884C46.7106 207.233 47.314 207.733 47.7383 208.38C48.1623 209.027 48.375 209.792 48.375 210.675C48.375 211.558 48.1625 212.32 47.7383 212.963C47.314 213.606 46.7106 214.104 45.9326 214.458C45.1532 214.812 44.2301 214.989 43.1631 214.989H41.5137V217.799H37.6582V206.362H43.165ZM85.3525 209.352H82.0039V217.799H78.1484V209.352H74.7988V206.361H85.3525V209.352ZM98.3242 217.799H94.3379L93.5713 215.806H89.2217L88.4551 217.799H84.5332L89.5332 206.361H93.3262L98.3242 217.799ZM104.583 206.361C105.857 206.361 106.979 206.594 107.948 207.057C108.917 207.52 109.674 208.176 110.219 209.025C110.764 209.875 111.035 210.877 111.035 212.063C111.035 213.25 110.764 214.271 110.219 215.127C109.674 215.983 108.917 216.641 107.948 217.104C106.979 217.568 105.857 217.799 104.583 217.799H98.9453V206.361H104.583ZM69.1611 206.36C70.2295 206.36 71.1513 206.536 71.9307 206.884C72.7086 207.233 73.3111 207.733 73.7354 208.38C74.1595 209.027 74.3721 209.792 74.3721 210.675C74.3721 211.558 74.1596 212.317 73.7354 212.954C73.3643 213.509 72.8582 213.952 72.2168 214.28L74.6172 217.798H70.5L68.5596 214.922H67.5098V217.798H63.6543V206.36H69.1611ZM131.804 206.36C132.872 206.36 133.794 206.536 134.573 206.884C135.351 207.233 135.954 207.732 136.378 208.379C136.802 209.026 137.015 209.792 137.015 210.675C137.015 211.558 136.802 212.317 136.378 212.954C136.007 213.509 135.501 213.952 134.859 214.28L137.239 217.769L142.227 206.361L142.229 206.36H146.02L151.018 217.798H147.031L146.265 215.805H141.915L141.148 217.798H133.143L131.202 214.921H130.152V217.798H126.297V206.36H131.804ZM55.7949 209.221C55.4356 209.221 55.1005 209.285 54.79 209.416C54.4794 209.547 54.2071 209.736 53.9727 209.98C53.7384 210.226 53.5556 210.525 53.4248 210.879C53.2954 211.233 53.2295 211.633 53.2295 212.08C53.2295 212.527 53.2941 212.927 53.4248 213.28C53.5557 213.634 53.7382 213.935 53.9727 214.18C54.2071 214.424 54.4794 214.612 54.79 214.743C55.1006 214.874 55.4355 214.938 55.7949 214.938C56.1543 214.938 56.4893 214.874 56.7998 214.743C57.1104 214.612 57.3828 214.424 57.6172 214.18C57.8516 213.934 58.0342 213.634 58.165 213.28C58.2958 212.927 58.3603 212.526 58.3604 212.08C58.3604 211.634 58.2959 211.233 58.165 210.879C58.0342 210.525 57.8515 210.225 57.6172 209.98C57.3828 209.735 57.1104 209.547 56.7998 209.416C56.4893 209.285 56.1543 209.221 55.7949 209.221ZM118.436 209.221C118.076 209.221 117.741 209.285 117.431 209.416C117.12 209.547 116.848 209.736 116.613 209.98C116.379 210.226 116.196 210.525 116.065 210.879C115.936 211.233 115.87 211.633 115.87 212.08C115.87 212.527 115.935 212.927 116.065 213.28C116.196 213.634 116.379 213.935 116.613 214.18C116.848 214.424 117.12 214.612 117.431 214.743C117.741 214.874 118.076 214.938 118.436 214.938C118.795 214.938 119.13 214.874 119.44 214.743C119.751 214.612 120.023 214.424 120.258 214.18C120.492 213.934 120.675 213.634 120.806 213.28C120.936 212.927 121.001 212.526 121.001 212.08C121.001 211.634 120.937 211.233 120.806 210.879C120.675 210.525 120.492 210.225 120.258 209.98C120.023 209.735 119.751 209.547 119.44 209.416C119.13 209.285 118.795 209.221 118.436 209.221ZM102.801 214.793H104.419C104.962 214.793 105.44 214.689 105.849 214.482C106.257 214.275 106.576 213.968 106.805 213.56C107.033 213.151 107.148 212.64 107.148 212.063C107.148 211.487 107.033 210.996 106.805 210.594C106.576 210.191 106.257 209.887 105.849 209.68C105.44 209.473 104.964 209.369 104.419 209.369H102.801V214.793ZM142.981 213.028H145.196L144.089 210.148L142.981 213.028ZM90.2881 213.027H92.5029L91.3955 210.146L90.2881 213.027ZM130.152 212.017H131.558C132.091 212.017 132.486 211.897 132.742 211.657C132.998 211.417 133.126 211.09 133.126 210.676C133.126 210.262 132.998 209.935 132.742 209.695V209.696C132.486 209.456 132.091 209.337 131.558 209.337H130.152V212.017ZM41.5146 212.015H42.9199C43.4535 212.015 43.8495 211.895 44.1055 211.655V211.657C44.3614 211.417 44.4893 211.09 44.4893 210.676C44.4892 210.262 44.3613 209.935 44.1055 209.695C43.8495 209.455 43.4535 209.336 42.9199 209.336H41.5146V212.015ZM67.5098 212.015H68.915C69.4484 212.015 69.8437 211.895 70.0996 211.655C70.3556 211.415 70.4834 211.089 70.4834 210.675C70.4834 210.261 70.3555 209.934 70.0996 209.694V209.695C69.8437 209.455 69.4484 209.336 68.915 209.336H67.5098V212.015ZM18.3643 186.494C19.3005 186.494 20.1625 186.642 20.9463 186.936C21.73 187.229 22.4102 187.646 22.9883 188.186C23.5649 188.725 24.0138 189.356 24.3359 190.081C24.6565 190.804 24.8174 191.612 24.8174 192.474C24.8174 193.335 24.6566 194.13 24.3359 194.859H24.3369C24.0162 195.59 23.5659 196.224 22.9893 196.764C22.4126 197.303 21.7324 197.719 20.9473 198.014C20.1621 198.308 19.3194 198.455 18.3818 198.455C17.4443 198.455 16.5814 198.307 15.792 198.014C15.0025 197.72 14.3179 197.303 13.7412 196.764C13.1645 196.224 12.7143 195.59 12.3936 194.859C12.0729 194.129 11.9121 193.345 11.9121 192.474C11.9121 191.602 12.0715 190.806 12.3936 190.081C12.7142 189.356 13.1631 188.725 13.7412 188.186C14.3193 187.646 15.0025 187.229 15.792 186.936C16.5814 186.641 17.4282 186.494 18.3643 186.494ZM70.8936 186.49C72.0153 186.49 73.0093 186.686 73.875 187.078C74.7406 187.471 75.4569 188.037 76.0234 188.777L73.5889 190.951C73.2509 190.527 72.8782 190.197 72.4697 189.963C72.0613 189.73 71.6008 189.612 71.0889 189.612C70.6864 189.612 70.3214 189.677 69.9951 189.808C69.6687 189.938 69.3877 190.13 69.1533 190.38C68.919 190.632 68.7363 190.933 68.6055 191.287C68.476 191.641 68.4102 192.037 68.4102 192.473C68.4102 192.908 68.4747 193.304 68.6055 193.657C68.7363 194.012 68.919 194.314 69.1533 194.564C69.3877 194.816 69.6687 195.006 69.9951 195.137C70.3214 195.266 70.6864 195.333 71.0889 195.333C71.6008 195.333 72.0613 195.216 72.4697 194.981C72.8781 194.748 73.251 194.418 73.5889 193.994L76.0234 196.167C75.4568 196.898 74.7407 197.46 73.875 197.858C73.0093 198.257 72.0153 198.455 70.8936 198.455C69.9776 198.455 69.1305 198.311 68.3525 198.022C67.5731 197.733 66.8985 197.322 66.3262 196.788V196.782C65.7538 196.249 65.3105 195.617 64.9941 194.887C64.6793 194.158 64.5215 193.351 64.5215 192.47C64.5215 191.588 64.6778 190.782 64.9941 190.052C65.3105 189.323 65.7538 188.69 66.3262 188.156C66.8985 187.623 67.5732 187.212 68.3525 186.923C69.132 186.634 69.9789 186.49 70.8936 186.49ZM155.705 186.494C156.641 186.494 157.502 186.642 158.286 186.936C159.07 187.229 159.75 187.646 160.328 188.186H160.33C160.907 188.725 161.356 189.356 161.678 190.081C161.998 190.804 162.159 191.612 162.159 192.474C162.159 193.335 161.998 194.13 161.678 194.859C161.357 195.59 160.907 196.224 160.33 196.764C159.753 197.303 159.073 197.719 158.288 198.014C157.503 198.308 156.659 198.455 155.722 198.455C154.784 198.455 153.921 198.307 153.132 198.014C152.342 197.72 151.658 197.303 151.081 196.764C150.504 196.224 150.054 195.59 149.733 194.859C149.413 194.129 149.252 193.345 149.252 192.474C149.252 191.602 149.411 190.806 149.733 190.081C150.054 189.356 150.503 188.725 151.081 188.186C151.659 187.646 152.342 187.229 153.132 186.936C153.921 186.641 154.769 186.494 155.705 186.494ZM6.37207 186.492C7.4938 186.492 8.48777 186.688 9.35352 187.081C10.2191 187.474 10.9354 188.04 11.502 188.78L9.06738 190.954C8.72943 190.53 8.35666 190.2 7.94824 189.966C7.53982 189.733 7.07935 189.615 6.56738 189.615C6.16493 189.615 5.79994 189.68 5.47363 189.811C5.14718 189.941 4.86625 190.133 4.63184 190.383V190.377C4.3975 190.629 4.21484 190.931 4.08398 191.284C3.95455 191.638 3.88867 192.034 3.88867 192.47C3.8887 192.905 3.95319 193.301 4.08398 193.654C4.2148 194.009 4.39755 194.311 4.63184 194.562C4.86625 194.813 5.14718 195.003 5.47363 195.134C5.79997 195.263 6.16489 195.33 6.56738 195.33C7.07935 195.33 7.53982 195.213 7.94824 194.979C8.3566 194.746 8.72947 194.415 9.06738 193.991L11.502 196.164C10.9353 196.895 10.2192 197.457 9.35352 197.855C8.48777 198.254 7.4938 198.452 6.37207 198.452C5.45609 198.452 4.609 198.309 3.83105 198.02C3.05159 197.73 2.37706 197.319 1.80469 196.785C1.23233 196.252 0.789037 195.62 0.472656 194.89C0.157816 194.161 4.13917e-05 193.354 0 192.473C0 191.591 0.15627 190.785 0.472656 190.055C0.789042 189.326 1.23232 188.693 1.80469 188.159C2.37703 187.626 3.05166 187.215 3.83105 186.926C4.6105 186.637 5.45745 186.492 6.37207 186.492ZM33.1221 192.844L36.7451 186.756H39.915L39.9482 198.193H36.4346L36.4072 192.976L33.918 197.163H32.2197L29.7354 193.157V198.193H26.2227V186.756H29.3916L33.1221 192.844ZM51.1064 189.664H45.5996V191.004H50.4365V193.781H45.5996V195.284H51.3193V198.193H41.8105V186.756H51.1064V189.664ZM58.3135 186.755C59.3804 186.755 60.3037 186.93 61.083 187.278C61.8609 187.628 62.4635 188.126 62.8877 188.773C63.3119 189.421 63.5244 190.186 63.5244 191.068C63.5244 191.951 63.3119 192.712 62.8877 193.349C62.5167 193.905 62.0104 194.348 61.3691 194.676L63.7695 198.193H59.6523L57.7119 195.317H56.6621V198.191H52.8066V186.755H58.3135ZM80.9883 198.193H77.1328V186.756H80.9883V198.193ZM95.3994 198.193H91.4131L90.6465 196.2H86.2998L85.5332 198.193H81.6113L86.6104 186.756H90.4014L95.3994 198.193ZM99.876 195.203H105.039V198.193H96.0195V186.756H99.876V195.203ZM109.957 198.193H106.102V186.756H109.957V198.193ZM135.593 198.193H131.606L130.84 196.2H126.49L125.724 198.193H111.412V195.824L116.632 189.747H111.574V186.757H121.655V189.126L116.436 195.203H121.917V197.932L126.803 186.756H130.594L135.593 198.193ZM141.85 186.756C143.124 186.756 144.246 186.987 145.215 187.45C146.184 187.913 146.941 188.569 147.486 189.419C148.031 190.269 148.303 191.272 148.303 192.458C148.303 193.644 148.031 194.666 147.486 195.521C146.941 196.377 146.184 197.036 145.215 197.499C144.246 197.962 143.124 198.193 141.85 198.193H136.213V186.756H141.85ZM169.07 186.754C170.139 186.754 171.061 186.93 171.841 187.278C172.619 187.628 173.221 188.126 173.646 188.773C174.07 189.42 174.282 190.186 174.282 191.068C174.282 191.951 174.07 192.711 173.646 193.348C173.275 193.903 172.768 194.346 172.127 194.674L174.507 198.163L179.494 186.756H183.285L188.284 198.193H184.298L184.299 198.191L183.532 196.198H179.182L178.416 198.191H170.409L168.47 195.315H167.42V198.191H163.564V186.754H169.07ZM18.3633 189.615C18.0038 189.615 17.6681 189.68 17.3574 189.811C17.047 189.941 16.7753 190.13 16.541 190.374C16.3067 190.62 16.124 190.919 15.9932 191.272C15.8637 191.626 15.7979 192.026 15.7979 192.474C15.7979 192.921 15.8623 193.321 15.9932 193.675C16.124 194.028 16.3067 194.329 16.541 194.573C16.7753 194.818 17.047 195.006 17.3574 195.137C17.6681 195.266 18.0038 195.333 18.3633 195.333C18.7227 195.333 19.0576 195.268 19.3682 195.137C19.6788 195.006 19.9511 194.818 20.1855 194.573C20.4198 194.327 20.6026 194.028 20.7334 193.675C20.8643 193.321 20.9287 192.919 20.9287 192.474C20.9287 192.028 20.8643 191.626 20.7334 191.272C20.6026 190.919 20.4198 190.618 20.1855 190.374C19.9511 190.128 19.6788 189.941 19.3682 189.811C19.0576 189.681 18.7227 189.615 18.3633 189.615ZM155.703 189.615C155.344 189.615 155.009 189.68 154.698 189.811C154.388 189.941 154.115 190.13 153.881 190.374C153.647 190.62 153.464 190.919 153.333 191.272C153.204 191.626 153.138 192.026 153.138 192.474C153.138 192.921 153.202 193.321 153.333 193.675C153.464 194.028 153.647 194.329 153.881 194.573C154.115 194.818 154.388 195.006 154.698 195.137C155.009 195.266 155.344 195.333 155.703 195.333C156.063 195.333 156.398 195.268 156.709 195.137C157.019 195.006 157.291 194.818 157.525 194.573C157.76 194.327 157.942 194.028 158.073 193.675C158.204 193.321 158.269 192.919 158.269 192.474C158.269 192.028 158.204 191.626 158.073 191.272C157.942 190.919 157.76 190.618 157.525 190.374C157.291 190.128 157.019 189.941 156.709 189.811C156.398 189.681 156.063 189.615 155.703 189.615ZM140.068 195.187H141.687C142.231 195.186 142.707 195.082 143.115 194.875C143.524 194.668 143.844 194.361 144.072 193.952C144.302 193.544 144.416 193.033 144.416 192.456C144.416 191.88 144.301 191.389 144.072 190.986C143.844 190.584 143.524 190.279 143.115 190.072C142.707 189.865 142.231 189.762 141.687 189.762H140.068V195.187ZM87.3633 193.423H89.5781L88.4707 190.542L87.3633 193.423ZM127.558 193.423H129.772L128.665 190.542L127.558 193.423ZM180.249 193.423H182.464L181.356 190.542L180.249 193.423ZM167.42 192.41H168.825C169.359 192.41 169.754 192.291 170.01 192.051C170.266 191.811 170.394 191.484 170.394 191.07C170.394 190.656 170.266 190.329 170.01 190.089V190.091C169.754 189.851 169.359 189.732 168.825 189.731H167.42V192.41ZM56.6621 192.409H58.0674C58.6006 192.409 58.996 192.29 59.252 192.05C59.5079 191.81 59.6357 191.483 59.6357 191.068C59.6357 190.654 59.5079 190.328 59.252 190.088V190.09C58.996 189.85 58.6008 189.73 58.0674 189.729H56.6621V192.409ZM159.595 81.9346C159.996 81.9584 160.393 81.9346 160.794 81.9346C168.983 81.9346 177.167 81.9298 185.355 81.9346C186.077 81.9346 186.799 81.9869 187.588 82.0156C187.731 82.5605 187.898 82.9909 187.941 83.4307C188.004 84.0903 187.984 84.7594 187.984 85.4238L187.979 85.4141C187.984 112.972 187.984 140.531 187.979 168.089C187.979 169.074 188.108 170.083 187.697 171.158C187.305 171.254 186.87 171.382 186.431 171.454C186.101 171.502 185.766 171.479 185.432 171.479C176.378 171.483 167.329 171.488 158.275 171.479C157.424 171.479 156.544 171.574 155.646 171C155.473 169.126 155.584 167.205 155.564 165.283C155.55 163.357 155.564 161.425 155.564 159.494V130.182C154.905 130.464 154.671 130.941 154.384 131.343C149.408 138.255 144.436 145.173 139.46 152.09C138.877 152.897 138.308 153.719 137.696 154.508C137.462 154.809 137.141 155.039 136.845 155.312C136.008 154.886 135.641 154.154 135.182 153.523C131.816 148.896 128.465 144.259 125.104 139.622C123.154 136.926 121.199 134.235 119.244 131.544C119.01 131.224 118.752 130.927 118.522 130.641C117.987 130.784 118.101 131.175 118.087 131.472C118.058 132.069 118.073 132.672 118.073 133.27C118.073 144.986 118.078 156.702 118.068 168.419C118.068 169.332 118.183 170.274 117.801 171.11C117.132 171.536 116.453 171.483 115.798 171.483C106.548 171.493 97.2928 171.493 88.043 171.483C87.3213 171.479 86.5705 171.555 85.9014 171.072C85.5142 170.269 85.6719 169.389 85.6719 168.538C85.6623 158.289 85.6631 148.036 85.6631 137.787C85.6631 133.394 85.6575 129 85.6719 124.607C85.6766 123.905 85.5194 123.15 86.0498 122.399C86.4896 122.509 86.9443 122.557 87.3506 122.729C90.4289 124.03 93.646 124.88 96.9395 125.334C100.63 125.841 104.329 126.08 108.072 125.631C110.787 125.301 113.469 124.899 116.084 124.125C121.624 122.49 126.39 119.521 130.473 115.473C132.93 113.035 135.215 110.425 137.653 107.973C142.314 103.288 146.473 98.1969 150.345 92.8525C152.572 89.7836 154.9 86.7865 157.181 83.7559C157.42 83.4356 157.668 83.1248 157.902 82.7998C158.318 82.2166 158.859 81.8963 159.595 81.9346ZM2.99316 0.00878906C16.9705 0.00878906 30.9433 0.00899445 44.9111 0.0185547H47.0439C47.842 0.64473 48.1723 1.4622 48.5977 2.19824C52.5986 9.182 56.5897 16.1755 60.5811 23.1641C61.1068 24.0865 61.6327 25.014 62.168 25.9316C62.2922 26.1419 62.4692 26.3289 62.6699 26.5869C63.4013 26.0133 63.684 25.2531 64.0664 24.5791C68.3686 17.0742 72.6517 9.56442 76.9443 2.05469C77.3076 1.42382 77.6991 0.811867 78.1006 0.152344C78.679 0.0997608 79.1957 0.0185547 79.7168 0.0185547C94.2249 0.0137744 108.738 0.0137744 123.246 0.0185547C123.834 0.0185686 124.417 0.0855792 124.886 0.114258C125.483 0.812056 125.363 1.50527 125.373 2.15527C125.392 3.75644 125.383 5.35283 125.383 6.94922C125.383 13.5364 125.388 20.1287 125.383 26.7158C125.383 27.4376 125.33 28.1597 125.292 29.1826C124.613 29.0201 124.221 28.9869 123.877 28.834C121.315 27.6915 118.643 26.8878 115.87 26.4814C112.577 25.9986 109.283 25.6927 105.937 26.0703C103.159 26.3858 100.391 26.7162 97.6953 27.4619C93.1255 28.7239 89.0334 30.8411 85.7207 34.3066C81.9682 38.2312 80.056 42.9258 79.8887 48.3418C79.8026 51.1383 79.8079 53.9398 80.6875 56.6406V56.6357C81.1225 57.9598 81.5908 59.2791 82.1787 60.541C82.9579 62.2189 82.9957 62.1476 81.8389 63.749C80.0511 66.2299 78.2633 68.7155 76.4756 71.2012C72.3981 76.8753 68.3253 82.5542 64.2334 88.2188C63.8175 88.7971 63.5115 89.5046 62.7754 89.8105C61.9772 89.5715 61.6952 88.8353 61.2793 88.2617C56.9723 82.3438 52.6841 76.4118 48.3867 70.4844C45.8484 66.9804 43.3145 63.4806 40.7666 59.9814C40.5133 59.6327 40.198 59.3315 39.6963 58.7725C39.5099 61.87 39.6246 64.6426 39.6055 67.415C39.5863 70.2115 39.6006 73.0082 39.6006 75.8047V100.768C39.5958 103.554 39.6296 106.341 39.5723 109.214C39.0369 109.367 38.6206 109.515 38.1855 109.605C37.9275 109.658 37.6553 109.635 37.3877 109.635C25.7382 109.635 14.0929 109.64 2.44336 109.635C1.7264 109.635 0.971059 109.73 0.263672 109.133C0.230211 108.674 0.163862 108.153 0.154297 107.627C-0.132519 90.8578 0.010005 2.61834 0.339844 0.304688C0.660055 0.213881 1.0237 0.0656237 1.39648 0.0273438C1.92225 -0.0204527 2.45784 0.00878158 2.99316 0.00878906ZM102.628 82.6406C103.264 83.2764 103.752 83.7311 104.196 84.2139C108.924 89.3525 113.642 94.496 118.374 99.6299C119.942 101.332 119.932 101.385 118.059 102.8C116.314 104.119 114.564 105.481 112.652 106.528C108.212 108.961 103.56 109.296 98.8418 107.321C97.8716 106.915 96.9395 106.366 96.084 105.749C90.9501 102.044 90.0608 95.1515 93.1533 90.2852C93.4736 89.7832 93.818 89.2853 94.21 88.8359H94.2051C96.5092 86.1782 99.4778 84.438 102.628 82.6406ZM125.092 70.6523C125.192 70.9344 125.326 71.1643 125.35 71.4033C125.522 73.0483 125.383 80.9855 125.145 82.335C124.81 82.225 124.584 82.2163 124.47 82.1016C123.614 81.2364 119.992 76.0024 119.441 74.8594C119.8 74.1471 120.617 73.8883 121.19 73.3721C121.783 72.8367 122.395 72.3256 123.031 71.8428C123.638 71.3839 124.112 70.6619 125.092 70.6523ZM85.0332 65.04C85.2053 65.107 85.4401 65.1306 85.5596 65.2549C87.3856 67.1861 89.2019 69.1317 91.0088 71.082C91.1809 71.2637 91.2523 71.5365 91.3574 71.7373L91.3623 71.7324C90.0716 73.3529 86.3101 76.5269 85.0098 77.1055C84.4361 75.9964 84.4073 75.4033 84.5459 66.8896C84.5555 66.2238 84.7178 65.6072 85.0332 65.04ZM105.191 42.3291C108.427 41.0769 111.602 41.3404 114.613 43.0039C118.595 45.1982 120.019 50.2362 117.815 54.2324C117.275 55.2123 116.583 56.1306 115.847 56.9814C113.982 59.1326 110.616 61.575 107.667 62.9756V62.9805C104.632 60.5426 102.012 57.8561 100.349 54.3428C98.5751 50.595 99.3882 44.571 105.191 42.3291Z" fill="#FFF7F0"/>
</svg>
