<svg width="85" height="85" viewBox="0 0 85 85" fill="none" xmlns="http://www.w3.org/2000/svg">
<path d="M77.1016 47.1724C77.3406 46.2829 78.1253 45.7701 79.0303 45.895C79.8868 46.0135 80.4977 46.6949 80.4453 47.6128C80.3379 49.5061 79.9044 51.3495 79.3281 53.1421C74.6338 67.7072 64.8415 76.7738 49.9346 80.2935C49.8557 80.3132 49.7749 80.327 49.6982 80.3511C49.6742 80.3576 49.6566 80.3836 49.5801 80.4448C49.7554 80.7976 50.136 80.9188 50.4297 81.1226C52.0098 82.2096 51.9183 83.6361 50.2002 84.5171H49.3799L49.3779 84.5103C47.5436 83.3203 45.6983 82.1474 43.8838 80.9312C42.9065 80.2781 42.7205 79.3645 43.3604 78.3696C44.4386 76.6909 45.5454 75.0296 46.6807 73.3882C47.3074 72.481 48.2783 72.3052 49.1133 72.8618C49.9219 73.4009 50.0949 74.3787 49.5273 75.3188C49.2052 75.8492 48.8517 76.3622 48.4375 76.9956C49.9979 76.8137 51.3748 76.4631 52.7051 75.9985C66.0735 71.3218 74.1975 62.0754 76.915 48.1372C76.9786 47.815 77.0183 47.4879 77.1016 47.1724ZM3.46094 44.4204C4.37258 43.1166 5.19219 42.9478 6.50488 43.8091C8.01247 44.7995 9.51337 45.8011 11.0078 46.8091C12.0641 47.5213 12.3315 48.5145 11.7354 49.3911C11.1677 50.2235 10.1623 50.3326 9.11719 49.7104C8.65696 49.4365 8.10434 48.7377 7.76465 48.981C7.29573 49.3163 7.78426 50.0307 7.90918 50.561C9.30739 56.5462 12.1239 61.7866 16.3076 66.2837C21.9288 72.3255 28.8299 75.9504 36.9756 77.2368C38.2838 77.4428 38.935 78.387 38.5977 79.4761C38.3259 80.3526 37.5743 80.7978 36.5312 80.6489C31.2365 79.895 26.2942 78.1331 21.7861 75.2622C12.6101 69.4195 6.75469 61.2032 4.33301 50.5698C4.28041 50.3441 4.33282 49.9864 4.08301 49.9185C3.75435 49.8286 3.69745 50.2302 3.52441 50.4165C3.43237 50.5151 3.36796 50.6397 3.28906 50.7515C2.26781 52.1759 1.01858 52.1629 0.00390625 50.7144V49.4019L0 49.4038C1.15275 47.7426 2.30162 46.0794 3.46094 44.4204ZM38.6543 16.9771C41.1592 16.8324 43.6867 16.7649 46.1895 17.0366C48.4664 17.2821 49.9983 18.5667 50.7588 20.7319C51.0568 21.5822 51.2893 22.4545 51.5479 23.3179C51.9906 24.7992 52.8847 25.3407 54.4033 25.0229C55.578 24.7775 56.718 24.354 57.9189 24.2466C60.2593 24.0363 62.089 24.9177 63.3271 26.9185C64.4645 28.7549 65.5666 30.6113 66.6602 32.4741C67.8896 34.5736 67.6076 36.98 65.9355 38.7485C65.2606 39.4629 64.5372 40.1335 63.8535 40.8413C62.8104 41.9173 62.8168 42.8397 63.8643 43.896C64.4801 44.5162 65.109 45.1259 65.7227 45.7505C67.6336 47.69 67.9488 50.0872 66.5791 52.4146C65.5535 54.1568 64.5126 55.8932 63.4541 57.6157C61.9551 60.0547 59.7153 60.9775 56.9453 60.3267C56.0687 60.1207 55.1964 59.8879 54.3154 59.6929C52.9436 59.3905 52.025 59.9188 51.5977 61.2534C51.3566 62.0073 51.1359 62.7703 50.9189 63.5308C50.2352 65.9324 48.6768 67.4597 46.1963 67.6899C43.4525 67.9442 40.6752 67.9855 37.9336 67.6567C35.6283 67.3827 34.1574 65.9413 33.4561 63.7368C33.1909 62.904 32.979 62.053 32.7139 61.2202C32.304 59.9317 31.3761 59.3904 30.0547 59.6753C29.1213 59.8769 28.1988 60.1354 27.2676 60.3501C24.6399 60.9572 22.3671 60.0235 20.9404 57.7202C19.847 55.954 18.7794 54.1726 17.7275 52.3823C16.3732 50.079 16.6848 47.6857 18.5586 45.7856C19.2314 45.1041 19.9253 44.4459 20.585 43.7534C21.433 42.8637 21.4469 41.8887 20.6055 40.9858C19.9349 40.2671 19.2115 39.5965 18.5234 38.8931C16.687 37.015 16.3867 34.6132 17.7168 32.3647C18.8037 30.5306 19.8992 28.7004 21.0059 26.8794C22.1103 25.0627 23.7848 24.2492 25.6475 24.1812L25.6523 24.1851C27.1667 24.2399 28.3873 24.6741 29.6387 24.9546C31.473 25.3666 32.3041 24.8999 32.8301 23.1226C33.0163 22.4936 33.2027 21.8645 33.3955 21.2378C34.2348 18.5205 35.8012 17.1415 38.6543 16.9771ZM45.5029 20.4331C43.2633 20.4068 41.0211 20.4054 38.7793 20.436C37.7714 20.4493 37.0922 21.0144 36.792 21.9741C36.4983 22.9121 36.2465 23.8638 35.9375 24.7974C35.0389 27.5146 32.4263 29.0443 29.6191 28.4878C28.5475 28.2752 27.4909 27.9945 26.4258 27.7534C25.2863 27.4949 24.5147 27.7948 23.9121 28.7808C22.858 30.5055 21.8167 32.2418 20.791 33.9819C20.1557 35.0578 20.2504 35.7283 21.127 36.6245C21.7953 37.3082 22.4944 37.9613 23.1562 38.6538C25.2097 40.8081 25.1919 43.9753 23.123 46.1099C22.4963 46.7563 21.8455 47.3831 21.21 48.0229C20.2436 49.0003 20.136 49.6228 20.8174 50.7886C21.8233 52.5111 22.8514 54.2208 23.8945 55.9214C24.5213 56.9448 25.3019 57.2469 26.4766 56.9839C27.5678 56.7385 28.6481 56.4343 29.748 56.2349C32.4875 55.7352 35.0521 57.2691 35.9287 59.9077C36.229 60.815 36.468 61.7421 36.7529 62.6538C37.1101 63.7976 37.7299 64.2846 38.9043 64.2935C41.063 64.3088 43.2222 64.3088 45.3809 64.2935C46.6036 64.2846 47.2105 63.8086 47.583 62.6099C47.8657 61.696 48.1158 60.7732 48.4072 59.8638C48.8061 58.6169 49.5843 57.6522 50.6953 56.9663C52.0956 56.103 53.5946 55.9215 55.1855 56.3335C56.2923 56.6228 57.4122 56.868 58.2998 57.0806L58.2979 57.0786C59.3387 57.0501 59.9528 56.7167 60.3691 56.022C61.4495 54.2163 62.5512 52.4234 63.6162 50.6089C64.1466 49.7038 64.0435 48.9943 63.3115 48.2251C62.6322 47.5129 61.9157 46.8377 61.2275 46.1343C59.1127 43.9669 59.0978 40.8066 61.1973 38.6216C61.8788 37.9115 62.6019 37.2428 63.2812 36.5327C64.0504 35.7285 64.1486 35.0428 63.5898 34.0874C62.5423 32.2947 61.4713 30.5144 60.3887 28.7437C59.8124 27.8015 59.0211 27.4974 57.9365 27.7427C56.8451 27.9903 55.7598 28.2774 54.6641 28.4966C51.9423 29.0378 49.3186 27.5301 48.4287 24.9136C48.1044 23.9581 47.8442 22.9775 47.5439 22.0132C47.2305 21.0053 46.5526 20.4463 45.5029 20.4331ZM42.1572 29.6978C49.1372 29.6979 54.8174 35.3779 54.8174 42.3579C54.8174 49.3379 49.1372 55.0179 42.1572 55.0181C35.1771 55.0181 29.4961 49.338 29.4961 42.3579C29.4961 35.3778 35.1771 29.6978 42.1572 29.6978ZM42.1572 33.2036C37.1101 33.2036 33.0029 37.3108 33.0029 42.3579C33.0029 47.4051 37.1101 51.5122 42.1572 51.5122C47.2042 51.512 51.3105 47.4049 51.3105 42.3579C51.3105 37.3109 47.2042 33.2038 42.1572 33.2036ZM44.9932 38.8843C45.8675 38.0299 46.8514 37.9967 47.5898 38.7681C48.3043 39.5132 48.26 40.4649 47.4229 41.313C45.5778 43.18 43.7152 45.0273 41.8613 46.8833C41.48 47.2646 41.0436 47.523 40.4805 47.4858V47.4888C39.983 47.5085 39.5772 47.3023 39.2354 46.9604C38.3039 46.0356 37.3636 45.1189 36.4541 44.1743C35.705 43.3986 35.6767 42.3663 36.3428 41.6782C37.0397 40.9597 38.0679 40.9904 38.8984 41.7573C39.0189 41.869 39.1329 41.9879 39.249 42.104C40.0919 42.9409 40.9423 42.9298 41.7998 42.0708C42.8627 41.0079 43.9172 39.9362 44.9932 38.8843ZM47.4053 4.08643C49.6252 4.23982 51.7841 4.75708 53.877 5.47803C67.1774 10.0715 75.788 19.1274 79.6299 32.6841C79.6825 32.8682 79.7377 33.0503 79.8057 33.23C79.821 33.2716 79.8843 33.2957 79.9609 33.3569C80.3598 33.0589 80.5418 32.5901 80.8311 32.2065C81.5039 31.3124 82.407 31.0871 83.2617 31.6196C84.0878 32.1325 84.3202 33.1363 83.7285 34.061C82.6811 35.6936 81.6029 37.3085 80.4854 38.895C79.7753 39.9009 78.8828 40.0302 77.8506 39.3354C76.218 38.2354 74.5984 37.1158 72.9922 35.9829C72.052 35.3189 71.8176 34.3148 72.3633 33.4995C72.9287 32.6516 73.9652 32.5133 74.9688 33.1597C75.3961 33.4358 75.8122 33.7301 76.3906 34.1245V34.1196C75.972 32.1561 75.4307 30.4419 74.6943 28.8071C69.4171 17.0893 60.5263 9.92999 47.8311 7.59814C47.5352 7.54336 47.2365 7.49954 46.9473 7.41846C46.0905 7.17733 45.5411 6.38358 45.6484 5.57275C45.7646 4.69187 46.4806 4.02306 47.4053 4.08643ZM31.3525 1.29443C31.8435 0.54306 32.8385 0.260751 33.6602 0.786621C35.4087 1.90414 37.1311 3.06755 38.8184 4.2749C39.5678 4.81179 39.7065 5.78523 39.1807 6.55225C37.9907 8.28793 36.7718 10.0039 35.5117 11.687C34.9178 12.4804 33.9423 12.5682 33.1709 12.0269C32.4238 11.5031 32.2311 10.5389 32.7393 9.69971C33.0198 9.23513 33.3511 8.80111 33.7061 8.29053C33.349 8.20728 33.0771 8.30102 32.8076 8.38428C18.9767 12.6951 10.5367 21.9373 7.4707 36.0903C7.36778 36.57 7.34404 37.0674 7.22363 37.5405C6.98915 38.4456 6.15597 39.0049 5.32324 38.8647C4.39625 38.707 3.82879 38.0516 3.87695 37.0786C3.95147 35.5993 4.27816 34.1545 4.68359 32.7388C8.79722 18.3537 18.061 9.08572 32.4199 4.8999C32.6477 4.8343 32.9043 4.84088 33.1211 4.57373C32.6917 4.27359 32.2642 3.99054 31.8545 3.68604C31.0611 3.09432 30.8507 2.06148 31.3525 1.29443Z" fill="#44AD49"/>
</svg>
