<svg width="52" height="51" viewBox="0 0 52 51" fill="none" xmlns="http://www.w3.org/2000/svg">
<path d="M26.0762 0C40.0655 4.1235e-05 51.4062 11.3407 51.4062 25.3301C51.4062 39.3194 40.0655 50.6601 26.0762 50.6602C12.0868 50.6602 0.746136 39.3194 0.746094 25.3301C0.746094 11.3407 12.0868 0 26.0762 0ZM26.0762 3C13.7437 3 3.74609 12.9976 3.74609 25.3301C3.74614 37.6626 13.7437 47.6602 26.0762 47.6602C38.4086 47.6601 48.4062 37.6625 48.4062 25.3301C48.4062 12.9976 38.4087 3.00004 26.0762 3ZM26.1963 13.0303C32.8963 13.0303 38.3467 18.4807 38.3467 25.1807C38.3464 31.8805 32.8961 37.3301 26.1963 37.3301C24.1865 37.33 22.1968 36.8202 20.417 35.8604L13.8066 37.6299L15.5664 31.0498C14.5666 29.25 14.047 27.2304 14.0469 25.1807C14.0469 18.4808 19.4964 13.0305 26.1963 13.0303ZM26.1963 15.3301C20.7664 15.3303 16.3467 19.7508 16.3467 25.1807C16.3468 26.9705 16.8472 28.7402 17.7871 30.29L18.0469 30.71L17.0664 34.3799L20.7529 33.3936L21.167 33.6406C22.6968 34.5504 24.4366 35.0302 26.1963 35.0303C31.6261 35.0303 36.0466 30.6105 36.0469 25.1807C36.0469 19.7507 31.6263 15.3301 26.1963 15.3301ZM20.7529 33.3936L20.7471 33.3906H20.7666L20.7529 33.3936ZM21.3887 19.9805C21.8087 19.6405 22.4285 19.4898 22.8984 19.7598C23.4084 20.0497 23.6682 20.78 23.9082 21.29C24.0982 21.69 24.3085 22.2102 24.2285 22.6602C24.1585 23.1101 23.7985 23.4903 23.5186 23.8203C23.3286 24.0503 23.298 24.2405 23.458 24.4805C24.388 26.0404 25.6887 27.1696 27.3887 27.8496C27.6185 27.9395 27.7983 27.9202 27.9482 27.7305C28.2382 27.3705 28.5285 26.6605 28.9785 26.4805C29.5685 26.2405 30.2188 26.5701 30.7188 26.8701L30.7285 26.8496C31.1985 27.1296 31.9685 27.4699 32.0986 28.0498C32.1586 28.3297 32.108 28.6297 31.998 28.8896C31.628 29.7796 30.7179 30.3503 29.7979 30.5303C28.9181 30.7001 28.188 30.4203 27.3682 30.1504C26.6382 29.9104 25.9283 29.5601 25.2783 29.1602C23.9783 28.3502 22.8485 27.2798 21.9385 26.0498C21.6585 25.6798 21.4079 25.2798 21.168 24.8799C20.848 24.35 20.5787 23.7796 20.4287 23.1797C20.3588 22.9298 20.3281 22.67 20.3281 22.4102C20.3181 21.4902 20.6687 20.5705 21.3887 19.9805Z" fill="white"/>
</svg>
